<?xml version="1.0" encoding="UTF-8" standalone="no"?>
<!-- Created with Inkscape (http://www.inkscape.org/) -->

<svg
   version="1.1"
   id="svg2"
   xml:space="preserve"
   width="669.33331"
   height="672"
   viewBox="0 0 669.33331 672"
   sodipodi:docname="matab logo color.eps"
   xmlns:inkscape="http://www.inkscape.org/namespaces/inkscape"
   xmlns:sodipodi="http://sodipodi.sourceforge.net/DTD/sodipodi-0.dtd"
   xmlns="http://www.w3.org/2000/svg"
   xmlns:svg="http://www.w3.org/2000/svg"><defs
     id="defs6" /><sodipodi:namedview
     id="namedview4"
     pagecolor="#ffffff"
     bordercolor="#666666"
     borderopacity="1.0"
     inkscape:pageshadow="2"
     inkscape:pageopacity="0.0"
     inkscape:pagecheckerboard="0" /><g
     id="g8"
     inkscape:groupmode="layer"
     inkscape:label="ink_ext_XXXXXX"
     transform="matrix(1.3333333,0,0,-1.3333333,0,672)"><g
       id="g10"
       transform="scale(0.1)"><path
         d="m 1210.6,1943.86 c 13.28,-3.71 30.64,-13.22 47.49,-18.09 14.19,-4.1 38.32,-7.64 55.34,-7.64 h 60.73 c 94.22,0 221.14,24.21 309.49,39.14 92.17,15.57 212.89,32.86 315.78,32.86 h 13.5 c 110.69,0 195.56,-16.08 276.97,-44.68 38.39,-13.49 72.81,-34.25 104.49,-55.22 34.82,-23.06 60.73,-58.43 86.37,-75.6 0,153 0,306 0,459 0,76.5 0,153 0,229.5 0,95.59 0.55,133.14 -26.67,202.82 -41.97,107.44 -144.31,164.6 -251.91,206.99 -54.46,21.45 -112.6,39.22 -168.08,61.36 -25.07,10.01 -58.32,22.35 -79.2,35.53 -8.07,5.1 -69.48,44.38 -69.45,44.1 L 1210.6,1943.86"
         style="fill:#bcbab7;fill-opacity:1;fill-rule:evenodd;stroke:none"
         id="path12" /><path
         d="m 2521.25,1812.38 c 0.72,0.48 34.61,33.47 38.83,37.65 14.47,14.33 26.49,23.52 42.75,35.99 26.56,20.37 67.79,42.55 101.47,55.99 67.16,26.79 172.04,48.12 264.54,48.12 h 35.98 c 99.66,0 223.93,-17.18 313.99,-32.4 50.42,-8.52 101.3,-15.88 149.88,-23.32 45.91,-7.04 108.11,-16.28 156.91,-16.28 h 47.24 c 23,0 47.95,1.96 65.7,6.26 21.33,5.18 38.16,14.91 54.39,19.03 l -677.89,1110.96 c -24.53,-16.43 -38.89,-30.79 -68.97,-45.76 -27.36,-13.62 -50.77,-23.49 -79.48,-35.25 -54.37,-22.27 -112.8,-39.1 -168,-61.43 -112.05,-45.31 -205.14,-96.97 -250.35,-208.56 -42.67,-105.33 -26.99,-286.91 -26.99,-432 0,-153 0,-306 0,-459"
         style="fill:#bcbab7;fill-opacity:1;fill-rule:evenodd;stroke:none"
         id="path14" /><path
         d="m 2521.25,1812.38 c 0,153 0,306 0,459 0,145.09 -15.68,326.67 26.99,432 45.21,111.59 138.3,163.25 250.35,208.56 55.2,22.33 113.63,39.16 168,61.43 28.71,11.76 52.12,21.63 79.48,35.25 30.08,14.97 44.44,29.33 68.97,45.76 l 677.89,-1110.96 c -16.23,-4.12 -33.06,-13.85 -54.39,-19.03 -17.75,-4.3 -42.7,-6.26 -65.7,-6.26 h -47.24 c -48.8,0 -111,9.24 -156.91,16.28 -48.58,7.44 -99.46,14.8 -149.88,23.32 -90.06,15.22 -214.33,32.4 -313.99,32.4 h -35.98 c -92.5,0 -197.38,-21.33 -264.54,-48.12 -33.68,-13.44 -74.91,-35.62 -101.47,-55.99 -16.26,-12.47 -28.28,-21.66 -42.75,-35.99 -4.22,-4.18 -38.11,-37.17 -38.83,-37.65 z m -635.8,1241.55 c -0.03,0.28 61.38,-39 69.45,-44.1 20.88,-13.18 54.13,-25.52 79.2,-35.53 55.48,-22.14 113.62,-39.91 168.08,-61.36 107.6,-42.39 209.94,-99.55 251.91,-206.99 27.22,-69.68 26.67,-107.23 26.67,-202.82 0,-76.5 0,-153 0,-229.5 0,-153 0,-306 0,-459 -25.64,17.17 -51.55,52.54 -86.37,75.6 -31.68,20.97 -66.1,41.73 -104.49,55.22 -81.41,28.6 -166.28,44.68 -276.97,44.68 h -13.5 c -102.89,0 -223.61,-17.29 -315.78,-32.86 -88.35,-14.93 -215.27,-39.14 -309.49,-39.14 h -60.73 c -17.02,0 -41.15,3.54 -55.34,7.64 -16.85,4.87 -34.21,14.38 -47.49,18.09 z m 2412.66,-1554.3 4.21,-0.84 36.28,9.84 c -55.16,114.99 -99.93,239.84 -156.66,354.03 -27.81,55.99 -54.03,119.47 -78.78,177.69 -25.1,59.03 -54.7,116.38 -78.55,175.67 -24.37,60.6 -54.47,117.44 -78.72,177.75 -22.47,55.87 -51.57,122.55 -78.16,176.07 -12.93,26.03 -29.36,62.99 -39.39,88.84 -18.63,47.97 -22.14,39.89 -58.79,67.2 -22.83,17.01 -54.74,34.43 -75.86,52.36 -10.94,9.28 -24.85,17.8 -37.05,25.94 -25.1,16.73 -13.49,11.77 -26.54,36.45 -123.96,0 -252.48,15.16 -340.33,51.05 -43.53,17.78 -29.88,6.78 -53.73,45.25 -12.77,20.59 -23.65,39.23 -36.45,60.28 -11.96,19.68 -69.68,108.82 -73.31,122.42 -7.34,-1.97 -49.04,-46.79 -68.19,-57.79 -27.24,-15.63 -51.45,-29.52 -82.19,-41.53 -58.5,-22.88 -122.87,-45.84 -182.81,-66.87 -53.37,-18.73 -123.43,-53.86 -164.52,-85.18 -33.37,-25.44 -101.64,-94.18 -111.82,-137.88 l -2.25,4.5 -2.25,-4.5 v -4.5 l -12.36,-107.9 -1.14,-0.1 c 0,18.61 -10.57,39.6 -13.1,54.39 -2.3,13.39 -0.39,49.13 -0.39,64.86 -6.09,7.01 -16.3,28.96 -23.39,39.6 -8.08,12.13 -16.85,23.88 -25.67,35.07 -18.84,23.89 -42.96,39.16 -65.11,58.62 -33.44,29.39 -115.82,65.58 -163.38,84.06 -59.17,22.98 -125.71,40.97 -181.29,66.15 -28.81,13.05 -56.44,24.44 -81.92,41.8 -13.25,9.03 -22.49,16.23 -34.46,26.27 -11.66,9.8 -18.48,23.33 -29.82,30.93 -6.4,-4.7 -63.78,-100.87 -72.7,-116.27 -11.79,-20.32 -23.39,-38.92 -35.71,-58.78 -17.34,-27.97 -13.25,-35.12 -47.64,-46.84 -93.49,-31.88 -194.04,-57.11 -318.53,-57.11 h -40.48 c -9.28,-39.86 -32.82,-44.67 -62.08,-66.15 -25.02,-18.38 -51.63,-34 -75.76,-52.47 -11.33,-8.69 -26.12,-19.51 -38.41,-26.82 -9.25,-5.49 -16.48,-30.97 -21.68,-41.31 -12.74,-25.36 -28.02,-60.42 -38.54,-87.45 -22.79,-58.52 -55.62,-118.26 -78.72,-177.75 -22.43,-57.75 -52.575,-117.46 -77.697,-176.53 -25.539,-60.06 -52.964,-117.17 -78.722,-177.75 -24.555,-57.76 -50.817,-119.72 -77.922,-176.3 -28.172,-58.81 -50.535,-118.92 -78.719,-177.75 -27.066,-56.5 -49.742,-122.8 -78,-176.23 h 44.985 c 4.136,17.77 26.55,61.23 35.261,81.73 11.071,26.03 23.387,55.81 35.926,81.06 26.02,52.38 45.254,108.01 71.297,160.43 23.512,47.32 52.512,113.61 71.496,162.48 20.355,52.43 48.133,107.13 70.945,160.78 46.2,108.68 96.97,213.94 143.14,322.55 22.85,53.74 50.58,108.46 70.95,160.78 16.66,42.77 23.73,36 56.54,60.45 21.16,15.76 45.49,32.52 67.47,47.25 -4.88,-20.96 -23.28,-59.92 -31.77,-82.97 -9.91,-26.91 -21.76,-54.36 -32.56,-82.18 -21.41,-55.15 -45.02,-110.65 -64.19,-165.29 -18.83,-53.72 -42.33,-111.5 -64.22,-165.25 -22.35,-54.83 -41.66,-109.41 -63.67,-163.56 -44.36,-109.22 -85.061,-220.35 -128.514,-330.44 -10.73,-27.18 -20.848,-54.4 -32.105,-82.64 -5.907,-14.82 -10.536,-27.25 -16.368,-42.12 -6.23,-15.89 -15.23,-18.83 -27.14,-29.11 -24.336,-21 -113.555,-83.02 -126.5,-100.69 l 38.238,-20.26 152.863,119.35 c 111.916,-0.09 159.816,15.58 247.636,33.51 72.4,14.77 145.42,47.2 215.34,65.82 32.11,8.56 73.73,22.75 107.55,34.18 33.22,11.22 74.46,21.61 109.68,29.78 73.15,16.96 160.86,32.36 248.79,32.36 151.6,0 256.6,-39.55 357.63,-90 62.07,-30.99 217.62,-142.27 251.91,-193.49 -13.11,-6.29 -52.71,-13.1 -71.68,-20.56 -22.54,-8.85 -38.11,-20.36 -58.03,-31.95 -20.77,-12.09 -80.02,-72.77 -86.22,-96 l -1443.985,38.26 v -40.5 h 42.739 l 0.847,14.23 14.895,-16.48 807.464,-20.25 98.96,-4.5 501.57,-13.5 c 42.92,81.14 111.63,153 233.92,153 117.59,0 190.48,-70.65 231.67,-148.5 2.74,-1.55 2.4,-2.25 6.74,-2.25 h 526.32 v 13.49 h 96.71 v -13.49 h 771.48 c 6.41,0 14.42,11.64 17.72,15.73 l 2.52,-15.73 h 40.49 l 2.24,38.25 H 2768.66 c -25.38,37.9 -50.87,75.08 -89.93,99.03 -57.12,35.03 -63.36,34.5 -137.24,51.72 6.97,10.41 109.83,87.81 126.85,98.1 24.22,14.64 44.38,29.28 68.76,43.71 22.69,13.43 47.95,25.47 70.69,39.54 66.02,40.87 244.98,95.4 352.23,95.4 h 31.48 c 173,0 318.49,-51.09 449.56,-94.79 136.53,-45.52 263.54,-98.71 445.63,-98.71 l 155.19,-141.76 26.99,29.26 c -8.17,5.47 -51.7,46.12 -61.32,55.65 -20.19,19.99 -39.6,37.2 -60.73,56.25 -27.78,25.05 -35.54,28.82 -49.2,67.78 -9.85,28.08 -22.99,56.29 -33.14,83.85 -41.2,111.83 -87.31,222.77 -131.67,334.04 -44.65,112 -86.7,222.98 -131.77,333.93 -22.66,55.77 -43.47,110.94 -66.16,167.82 -11.5,28.83 -21.95,54.8 -33.5,83.47 -6.06,15.01 -10.43,27.23 -16.37,42.13 -1.93,4.84 -17.39,38.86 -16.67,39.58 l 1.87,2.62 c 18.73,-16.33 48.58,-35.26 69.68,-50.3 36.78,-26.19 35.43,-15.52 55.13,-61.85 23.55,-55.39 48.62,-107.08 71.97,-162 45.99,-108.17 101.47,-216.37 143.53,-324.42 41.75,-107.25 101.95,-215.85 143.94,-324 20.76,-53.45 50.9,-107.7 71.98,-162 18.97,-48.86 48.51,-114.01 71.67,-162.3 z m -453.8,436.82 -554.81,912.58 c 23.73,-11.45 109.95,-30.43 142.66,-35.41 53.25,-8.1 101.89,-13.49 164.2,-13.49 l 4.89,-13.37 c 12.84,-1.24 28.32,-53.76 33.66,-67.32 9.11,-23.14 18.34,-46.76 28,-70.99 19.32,-48.47 38.21,-96.09 56.85,-143.39 36.95,-93.79 79.64,-192.17 112.45,-285.75 16.52,-47.09 38.32,-96.27 56.86,-143.37 18.7,-47.51 37.06,-95.25 56.61,-143.63 15.5,-38.37 110.02,-265.36 111.77,-286.43 h -18 c -129.12,0 -305.69,70.05 -410.2,104.9 -112.73,37.6 -274.55,93.1 -419.75,93.1 h -24.74 c -83.56,0 -141.98,-10.49 -210.11,-26.07 -66.11,-15.12 -114.5,-40.36 -170.9,-63.04 -48.57,-19.52 -108.53,-58.06 -150.25,-85.95 -22.27,-14.88 -48.64,-31.43 -68.66,-48.31 -18.49,-15.58 -46.61,-38.25 -65.84,-51.13 v 171 c 92.76,138.57 239.62,209.25 470.08,209.25 109.62,0 229.03,-15.92 326.13,-31.5 92.41,-14.84 215.8,-40.5 317.14,-40.5 h 56.23 c 56.69,0 133.42,25.96 155.73,58.82 z m -2438.67,863.68 c 57.07,0 116.9,4.49 165.57,14.36 21.34,4.33 55.26,9.38 74.14,15.84 11.94,4.09 58.44,18.46 68.44,19.3 -53.51,-101.16 -553.31,-895.84 -553.31,-913.5 0,-13.87 56.86,-39.33 71.91,-45.07 23,-8.78 68.71,-13.43 101.28,-13.43 h 9 c 115.78,0 221.99,20.86 325.61,36.52 94.86,14.33 218.15,35.48 324.41,35.48 h 47.23 c 201.34,0 357.77,-79.52 438.59,-200.25 v -182.26 c -8.56,5.74 -49.48,43.88 -59.06,53.42 -16.79,16.75 -41.31,34.74 -60.76,49.47 -45.67,34.56 -83.99,56.49 -134.79,85.66 -79.74,45.79 -225.11,90.45 -350.42,90.45 h -44.98 c -143.81,0 -327.36,-55.49 -440.02,-93.08 -110.35,-36.81 -292.32,-102.66 -430.425,-102.66 l 447.585,1149.75"
         style="fill:#3aa947;fill-opacity:1;fill-rule:evenodd;stroke:none"
         id="path16" /><path
         d="m 2597.72,937.121 c 0,38.09 36.96,85.509 74.23,85.509 h 17.98 c 39.02,0 74.23,-52.38 74.23,-94.509 v -13.496 c 0,-39.957 -37.37,-90 -76.47,-90 h -15.74 c -35.06,0 -74.23,48.465 -74.23,85.496 z m -312.64,0 c 0,35.738 38.89,85.509 74.22,85.509 h 18 c 37.31,0 74.22,-49.81 74.22,-90.005 v -15.754 c 0,-44.512 -35.5,-92.246 -78.72,-92.246 h -11.25 c -37.51,0 -76.47,48.543 -76.47,85.496 z m 1875.83,-29.25 2.25,411.759 -2.52,15.73 c -3.3,-4.09 -11.31,-15.73 -17.72,-15.73 h -771.48 v 13.49 h -96.71 v -13.49 h -526.32 c -4.34,0 -4,0.7 -6.74,2.25 2.58,-3.53 0.41,-4.5 6.74,-4.5 h 526.32 V 892.121 c 0,-29.195 -18.56,-56.25 -47.23,-56.25 h -134.96 c -29.44,0 -58.46,13.254 -60.73,40.504 l -2.3,162.005 h -94.41 l -2.25,-150.755 c -0.54,-24.258 -22.27,-49.504 -47.23,-49.504 h -4.5 c -35.89,0 -35.99,45.988 -35.99,83.254 0,44.328 -5.42,69.426 -20.23,99.015 -23.08,46.1 -69.06,98.99 -137.21,98.99 h -22.49 c -63.56,0 -126.96,-72.36 -139.46,-126.005 -5.6,6.441 -14.68,33.465 -22.49,45.005 -10.43,15.41 -16.43,24.23 -29.79,37.69 -17.84,17.96 -57.36,43.31 -91.67,43.31 h -24.74 c -54.67,0 -96.14,-41.56 -119.24,-74.22 -14.41,-20.37 -20.77,-41.75 -28.94,-67.801 -8.69,-27.734 -4.76,-52.109 -4.76,-85.238 0,-28.277 -12.73,-54 -40.48,-54 -28.15,0 -49.49,29.766 -49.49,58.504 v 141.755 h -96.71 V 876.375 c 0,-24.953 -32.57,-40.504 -58.48,-40.504 h -137.2 c -45.93,0 -47.24,44.016 -47.24,90 0,45 0,89.999 0,134.999 0,90 0,180 0,270.01 l -98.96,4.5 c 6.09,-12.71 2.25,-316.63 2.25,-360.005 0,-55.766 -7.8,-129.895 12.72,-167.277 18.36,-33.469 65.9,-64.473 115.48,-64.473 h 202.43 c 22.25,0 44.44,19.84 58.48,29.246 33.34,-22.332 33.59,-33.75 92.22,-33.75 44.68,0 76.66,13.551 103.46,31.504 26.77,-17.934 50.69,-42.754 96.71,-42.754 h 22.49 c 34.19,0 73.41,25.832 91.71,43.262 9.58,9.125 23.13,26.582 29.69,37.801 5.42,9.277 18.55,40.336 22.55,44.937 13.02,-55.871 76.2,-126 143.95,-126 h 13.5 c 58.65,0 98.52,42.754 103.46,42.754 1.19,0 35.31,-19.902 44.66,-22.824 14.25,-4.453 39.72,-8.68 58.8,-8.68 39.41,0 74.41,10.508 89.97,33.75 15.61,-8.258 38.57,-29.246 60.73,-29.246 h 200.18 c 35.02,0 63.08,15.016 86.24,28.469 15.29,8.886 44.21,49.601 44.21,70.531 v 474.755 h 771.48 c -3.15,-11.78 -78.25,-89.92 -91.71,-104.02 -16.87,-17.68 -30.85,-33.18 -48.3,-50.68 -14.92,-14.96 -37.72,-31.07 -48.93,-47.81 V 734.625 c 24.89,13.172 193.77,153.586 206.93,173.246"
         style="fill:#2daae5;fill-opacity:1;fill-rule:evenodd;stroke:none"
         id="path18" /><path
         d="m 3555.88,4685.63 c 26.76,-14.17 181.47,-101.5 191.18,-114.75 279.37,-187.15 523.21,-438.13 694.26,-734.24 168.14,-291.03 306.63,-666.1 306.63,-1124.26 0,-63.36 -2.29,-128.34 -8.84,-184.67 -6.59,-56.74 -7.6,-125.85 -20.4,-175.33 -6.17,-23.9 -9.67,-56.22 -14.87,-81.88 -5.98,-29.43 -10.56,-51.39 -17.52,-79.23 -13.68,-54.74 -28.57,-101.83 -42.71,-153.01 -24.7,-89.35 -71,-203.16 -109.33,-279.88 -21.52,-43.08 -41.63,-88.57 -66.57,-129.17 -13.04,-21.24 -22.88,-40.76 -34.64,-62.09 -10.42,-18.89 -27.44,-40.34 -38.24,-60.74 34.06,0 71.5,2.02 94.46,-9 20.53,38.8 44.46,77.51 66.71,117.77 22.81,41.26 41.55,80.97 62.22,124.5 40.66,85.62 73.44,172.69 104.7,266.51 53.44,160.38 108.25,423.77 108.25,634.22 v 126 c 0,129.31 -18.04,259.6 -39.21,370.27 -11.65,60.89 -25.75,111.92 -37.44,167.3 -5.16,24.44 -14.77,56.76 -22.56,80.93 -6.71,20.8 -16.48,58.95 -25.54,77.95 -10.08,21.14 -17.78,51.18 -26.84,74.4 -9.76,24.99 -20.95,49.35 -30.29,73.2 -18.76,47.92 -43.22,96.78 -65.53,141.45 -41.83,83.75 -99.52,186.67 -152.94,258.75 -14.21,19.16 -27.73,39.16 -41.39,59.85 -12.73,19.29 -33.75,39.3 -44.84,58.64 -7.71,13.45 -33.59,43.27 -44.81,56.42 -15.51,18.17 -31.13,39.52 -47.16,56.33 -33.81,35.43 -65.5,69.91 -100.15,104.57 -35.34,35.35 -70.66,66.53 -105.67,101.28 -15,14.9 -38.87,31.22 -55.17,46.07 -19.25,17.52 -36.7,30.35 -57.52,45.96 -39.54,29.65 -77.51,60.09 -119.13,87.83 -85.65,57.1 -165.8,103.16 -259.1,152.55 v -94.5"
         style="fill:#ed1c24;fill-opacity:1;fill-rule:evenodd;stroke:none"
         id="path20" /><path
         d="m 535.203,1490.63 c 13.227,3.08 22.34,8.85 39.504,12.23 15.965,3.14 35.625,1.26 52.715,1.26 -193.336,288.83 -355.375,722.64 -355.375,1206.01 0,229.39 35.762,442.04 88.558,620.16 50.665,170.94 127.227,363.12 213.325,497.6 23.508,36.72 42.933,72.64 66.98,108.49 24.231,36.13 47.215,69.25 73.301,104.42 21.078,28.42 54.641,76.52 77.961,99.77 26.269,26.19 58.824,65.37 83.242,94.48 23.5,28.01 61.766,61.81 88.828,88.88 30.004,30.02 64.848,55.27 93.338,84.38 19.09,19.5 183.78,148.74 201.87,153.57 11.3,15.43 171,106.05 200.18,121.5 1.54,2.75 2.24,2.4 2.24,6.75 v 87.75 c -25.15,-2.1 -230.85,-130.41 -258.26,-151.14 -76.2,-57.61 -163.52,-112.61 -230.407,-179.02 -34.379,-34.13 -69.683,-65.26 -104.558,-100.15 -34.715,-34.73 -65.696,-70.13 -100.118,-104.6 -17.129,-17.15 -29.281,-38.59 -46.082,-55.15 -13.886,-13.69 -34.179,-40.44 -46.468,-57.02 -29.438,-39.68 -58.883,-77.16 -86.356,-118.36 -104.996,-157.43 -209.98,-348.68 -274.558,-544.35 -17.102,-51.81 -30.407,-104.29 -47.77,-156.96 -8.547,-25.93 -11.883,-55.91 -19.645,-81.59 -7.519,-24.89 -14.347,-57.44 -18.585,-84.91 -17.711,-114.8 -40.235,-237.72 -40.235,-371.5 v -90 c 0,-233.51 45.067,-489 104.285,-665.18 16.235,-48.29 31.051,-95.36 49.528,-141.71 18.726,-46.97 39.129,-89.85 58.336,-135.14 19.121,-45.1 41.531,-85.13 63.781,-127.45 22.777,-43.32 48.769,-82.04 70.445,-123.02"
         style="fill:#ed1c24;fill-opacity:1;fill-rule:evenodd;stroke:none"
         id="path22" /><path
         d="m 4543.27,1409.63 c -5.07,0 1.05,-0.87 -4.49,2.25 0.54,2.05 50.04,46.69 56.79,53.43 15.76,15.78 39.5,43.32 69.16,43.32 83.97,0 126.64,-72.01 168.11,-117.59 22.22,-24.41 42.31,-56.06 65.24,-78.73 28.63,-28.31 51.92,-40.88 79.29,-64.68 -32.85,-7.66 -61.24,-18 -103.46,-18 l -58.53,-0.9 -87.67,5.39 c 17.12,-73.52 8.99,-158.16 8.99,-245.249 -60.23,40.359 -83.01,72.699 -129.87,124.329 -35.76,39.4 -81.95,102.89 -129.06,127.76 l 2.53,8.91 c 27.26,-6.35 105.79,-94.85 123.69,-119.26 21.15,-28.86 91.4,-105.57 120.87,-121.46 l 5.1,123.72 c 1.33,28.9 -7.34,94.98 -15.76,112.36 l 92.23,-6.6 63.25,-1.9 85.2,13.14 c -4.95,6.76 -27.86,22.13 -36.41,28.83 -8.31,6.51 -26.29,25.12 -33.91,33.58 -20.72,22.98 -39.5,49.11 -59.52,73.21 -31.4,37.8 -89.79,114.14 -153.56,114.14 h -2.25 c -49.15,0 -100.37,-90 -125.96,-90 z m -53.98,87.75 c -22.96,11.02 -60.4,9 -94.46,9 l -56.23,2.25 -36.28,-9.84 -4.21,0.84 -29.24,-20.25 -26.99,-29.26 -35.74,-56.41 -0.25,-35.83 -2.24,-38.25 2.24,-369.005 c 32.43,21.719 99.41,103.845 130.97,136.735 35.83,37.35 89.91,103.76 118.69,146.76 49.83,-33.37 111.35,-90.71 148.04,-137.67 18.24,-23.35 124.68,-128.118 148.86,-134.579 l 7.18,155.229 -0.43,9.02 -11.09,94.83 -2.4,-0.26 83.15,-5.47 56.29,0.9 c 23.33,0 48.89,3.52 69.74,6.74 17.83,2.77 48.79,13.2 62.97,13.52 v 4.49 c -35.2,9.4 -136.52,121.38 -159.7,153.01 -26.47,36.13 -121.26,132.75 -177.68,132.75 h -15.75 c -59.71,0 -86.89,-58.62 -116.96,-78.75 -12.73,19.02 -33.41,43.65 -58.48,49.5"
         style="fill:#2daae5;fill-opacity:1;fill-rule:evenodd;stroke:none"
         id="path24" /><path
         d="m 62.875,1292.63 94.465,-11.25 31.562,-1.09 112.387,7.83 c -21.965,-45.79 -13.496,-153.7 -13.496,-220.49 v -15.76 c 24.316,6.5 104.961,96.81 122.391,120.57 18.418,25.11 97.55,113.78 124.746,120.1 l 2.527,-8.91 c -33.543,-8.97 -103.398,-98.42 -127.66,-126.56 -43.766,-50.76 -74.152,-87.37 -131,-125.44 0,41.83 -2.281,88.29 -2.305,125.94 -0.015,23.86 1.996,41.71 2.223,63.14 0.199,19.24 7.797,40.76 9.035,56.71 l -74.18,-5.04 h -58.48 c -22.024,0 -42.809,1.73 -62.422,5.05 -16.3008,2.76 -42.5821,11.95 -54.5352,12.95 2.6914,3.67 31.6445,22.32 39.9063,29.82 13.4882,12.26 23.0589,20.78 36.0079,33.73 25.301,25.32 42.199,49.73 65.238,76.49 33.488,38.9 92.719,120.96 160.238,120.96 64.547,0 105.098,-83.74 155.321,-110.32 l -4.621,-8.94 c -29.168,19.54 -41.547,33.69 -65.789,57.95 -16.633,16.63 -45.547,50.05 -75.914,50.05 h -20.243 c -46.582,0 -118.156,-84.03 -141.324,-115.12 -16.473,-22.09 -39.039,-50.78 -58.293,-69.94 -7.551,-7.51 -65.1991,-60.23 -65.785,-62.43 z m 746.73,65.25 v 74.24 l -31.484,45 -38.238,20.26 -35.988,6.74 H 658.91 627.422 c -17.09,0 -36.75,1.88 -52.715,-1.26 -17.164,-3.38 -26.277,-9.15 -39.504,-12.23 l -35.539,-31.84 1.801,-1.91 c -37.84,3.14 -86.527,112.5 -150.695,112.5 h -13.497 c -60.949,0 -146.824,-96.84 -177.261,-135.43 -21.301,-27 -49.617,-56.66 -74.0862,-81.13 -13.5664,-13.58 -24.5313,-26.9 -40.1445,-38.6 -6.7774,-5.08 -41.56255,-30.01 -43.63677,-32.84 43.41017,-10.12 105.26147,-26.23 161.94147,-22.51 l 110.242,6.3 c -6.933,-29.2 -15.562,-64.93 -13.527,-103.05 l 7.808,-157.44 c 50.305,27.13 101.184,94.93 142.325,135.51 23.121,22.81 42.179,48.94 66.351,73.12 23.301,23.31 48.508,45.21 75.914,63.57 10.559,-7.08 48.992,-61.03 61.344,-75.89 21.59,-25.97 40.336,-49.29 62.957,-74.27 31.641,-34.93 97.137,-116.67 132.105,-140.095 v 371.255"
         style="fill:#2daae5;fill-opacity:1;fill-rule:evenodd;stroke:none"
         id="path26" /><path
         d="M 2235.6,4930.88 V 3110.63 c 10.35,-5.48 37.7,-23.05 45.56,-30.92 4.47,-4.47 38.52,-34.15 42.16,-36.58 v 1896.75 l -87.72,-9"
         style="fill:#2e3192;fill-opacity:1;fill-rule:evenodd;stroke:none"
         id="path28" /><path
         d="m 2721.43,4937.63 -85.48,4.5 v -600.75 c 11.11,-16.6 29.24,-30.3 38.98,-53.26 10.31,-24.29 17.25,-41.27 17.25,-74.99 v -13.5 c 0,-69.81 -56.23,-125.82 -56.23,-128.25 v -888.75 c 0,-4.29 9,-15.61 9,-29.25 v -18 c 0,-11.52 -4.31,-20 -9,-27 l -0.64,-102.83 84.09,80.2 2.03,-2.12 v 1854"
         style="fill:#2e3192;fill-opacity:1;fill-rule:evenodd;stroke:none"
         id="path30" /><path
         d="m 2849.63,4921.88 -85.47,11.25 0.5,-1818.88 38.28,21.13 -2.8,317.25 v 123.75 c 0,6.42 43.03,46.6 49.49,56.25 v 1289.25"
         style="fill:#2e3192;fill-opacity:1;fill-rule:evenodd;stroke:none"
         id="path32" /><path
         d="m 2993.58,4894.88 -101.22,18 1.18,-1236.36 100.04,106.86 v 1111.5"
         style="fill:#2e3192;fill-opacity:1;fill-rule:evenodd;stroke:none"
         id="path34" /><path
         d="m 2109.64,4910.63 -0.17,-1161.18 83.39,-80.82 v 1255.5 l -83.22,-13.5"
         style="fill:#2e3192;fill-opacity:1;fill-rule:evenodd;stroke:none"
         id="path36" /><path
         d="m 1981.44,4883.63 -1.05,-1011.38 86.52,-79.87 v 1109.25 l -85.47,-18"
         style="fill:#2e3192;fill-opacity:1;fill-rule:evenodd;stroke:none"
         id="path38" /><path
         d="m 2534.74,4024.13 h -49.48 v -785.25 h 49.48 c 22.67,0 39.97,-13.69 58.48,-18 v 821.25 c -13.81,-3.22 -44.61,-18 -58.48,-18"
         style="fill:#2e3192;fill-opacity:1;fill-rule:evenodd;stroke:none"
         id="path40" /><path
         d="m 3119.54,4863.38 -83.23,20.25 0.77,-1055.97 82.46,88.47 v 947.25"
         style="fill:#2e3192;fill-opacity:1;fill-rule:evenodd;stroke:none"
         id="path42" /><path
         d="M 852.344,1357.88 V 943.871 C 863.293,927.516 1042.66,774.457 1057.02,770.625 v 371.245 c 0,5.08 -181.114,184.45 -188.934,213.76 l -14.895,16.48 -0.847,-14.23"
         style="fill:#2daae5;fill-opacity:1;fill-rule:evenodd;stroke:none"
         id="path44" /><path
         d="m 3261.23,4816.13 -98.96,31.5 1.21,-887.65 97.75,104.65 v 751.5"
         style="fill:#2e3192;fill-opacity:1;fill-rule:evenodd;stroke:none"
         id="path46" /><path
         d="m 2442.52,2833.88 v 227.25 c -29.86,6.96 -71.97,45.55 -71.97,83.25 0,38.46 40.74,75.97 71.97,83.25 v 807.75 c -35.23,9.41 -53.48,38.6 -76.47,54 0,-222 0,-444 0,-666 0,-111 0,-222 0,-333 0,-27.75 0.15,-55.52 -0.01,-83.26 -0.16,-29.14 13.65,-36.69 24.72,-58.53 9.16,-18.07 19.1,-35.2 27.75,-55.49 4.67,-10.95 18.29,-55.03 24.01,-59.22"
         style="fill:#2e3192;fill-opacity:1;fill-rule:evenodd;stroke:none"
         id="path48" /><path
         d="m 1853.23,4847.63 -0.66,-851.21 86.13,-80.29 v 956.25 l -85.47,-24.75"
         style="fill:#2e3192;fill-opacity:1;fill-rule:evenodd;stroke:none"
         id="path50" /><path
         d="m 3706.57,574.871 c 13.64,1.137 89.26,51.203 105.66,60.813 16.9,9.91 88.79,62.457 99.02,65.187 v 375.759 c -4.7,-1.26 -88.86,-70.45 -101.82,-80.396 -12.13,-9.296 -102.86,-69.984 -102.86,-77.113 v -344.25"
         style="fill:#2daae5;fill-opacity:1;fill-rule:evenodd;stroke:none"
         id="path52" /><path
         d="m 1099.75,736.871 c 25.55,-17.113 181.44,-126.687 200.18,-128.25 v 333.004 c 0,7.617 -89.7,70.925 -102.15,80.065 -18.02,13.22 -33.08,28.2 -50.39,41.83 -14.95,11.78 -34.56,33.6 -47.64,42.35 V 736.871"
         style="fill:#2daae5;fill-opacity:1;fill-rule:evenodd;stroke:none"
         id="path54" /><path
         d="m 1340.42,586.121 c 0,-6.926 79,-46.269 89.97,-51.746 13.95,-6.977 85.51,-44.07 96.71,-45 v 315 c 0,7.035 -83.24,49.711 -94.4,56.313 -14.62,8.656 -83.06,53.722 -92.28,56.183 v -330.75"
         style="fill:#2daae5;fill-opacity:1;fill-rule:evenodd;stroke:none"
         id="path56" /><path
         d="M 2593.22,4946.63 H 2485.26 V 4390.88 H 2528 c 25.09,0 45.13,-13.32 65.22,-18 v 573.75"
         style="fill:#2e3192;fill-opacity:1;fill-rule:evenodd;stroke:none"
         id="path58" /><path
         d="m 3664,547.547 -0.16,346.828 c -29.93,-15.848 -55.98,-33.984 -87,-50.223 -10.98,-5.75 -86.19,-44.242 -86.19,-51.031 l 0.73,-329.984 172.62,84.41"
         style="fill:#00adef;fill-opacity:1;fill-rule:evenodd;stroke:none"
         id="path60" /><path
         d="m 3272.48,381.375 c 21.34,4.973 175.44,59.148 175.44,69.746 v 324 c -6.9,-0.57 -76.78,-32.019 -88.48,-37.496 -11.91,-5.57 -86.96,-30.961 -86.96,-39 v -317.25"
         style="fill:#00adef;fill-opacity:1;fill-rule:evenodd;stroke:none"
         id="path62" /><path
         d="m 1569.84,473.621 c 0,-13.746 143.93,-59.027 164.19,-69.75 v 312.754 l -1.06,-2.422 -163.38,71.613 0.25,-312.195"
         style="fill:#2daae5;fill-opacity:1;fill-rule:evenodd;stroke:none"
         id="path64" /><path
         d="m 3384.94,4768.88 -80.97,31.5 0.92,-691.64 80.05,84.14 v 576"
         style="fill:#2e3192;fill-opacity:1;fill-rule:evenodd;stroke:none"
         id="path66" /><path
         d="m 3232.02,367.754 -0.03,319.621 -156.87,-46.902 -0.21,-314.481 157.11,41.762"
         style="fill:#2daae5;fill-opacity:1;fill-rule:evenodd;stroke:none"
         id="path68" /><path
         d="m 1776.76,394.871 c 0,-9.422 65.4,-25.266 76.73,-28.992 14.55,-4.785 70.38,-21.707 82.96,-22.758 v 306 l -159.91,48.805 0.22,-303.055"
         style="fill:#2daae5;fill-opacity:1;fill-rule:evenodd;stroke:none"
         id="path70" /><path
         d="m 2156.88,302.621 c 0,-15.262 137.2,-24.75 161.94,-24.75 v 301.504 l -162.1,19.012 0.16,-295.766"
         style="fill:#2daae5;fill-opacity:1;fill-rule:evenodd;stroke:none"
         id="path72" /><path
         d="m 2851.97,285.996 -0.09,309.125 -155.09,-18.93 v -306.07 l 155.18,15.875"
         style="fill:#2daae5;fill-opacity:1;fill-rule:evenodd;stroke:none"
         id="path74" /><path
         d="m 1747.52,4813.88 -0.52,-713.8 63.5,-60.2 v 794.25 l -62.98,-20.25"
         style="fill:#2e3192;fill-opacity:1;fill-rule:evenodd;stroke:none"
         id="path76" /><path
         d="m 2366.05,4942.13 v -616.5 c 23.68,15.86 40.22,44.32 76.47,54 v 564.75 l -76.47,-2.25"
         style="fill:#2e3192;fill-opacity:1;fill-rule:evenodd;stroke:none"
         id="path78" /><path
         d="m 2894.61,293.621 c 20.73,0 55.35,7.281 74.41,11.07 11,2.184 65.04,7.68 65.04,18.18 v 308.25 l -139.24,-30.191 -0.21,-307.309"
         style="fill:#2daae5;fill-opacity:1;fill-rule:evenodd;stroke:none"
         id="path80" /><path
         d="m 1635.06,4768.88 -0.6,-560.86 70.33,-66.89 v 654.75 l -69.73,-27"
         style="fill:#2e3192;fill-opacity:1;fill-rule:evenodd;stroke:none"
         id="path82" /><path
         d="m 1979.19,331.871 136.92,-28.367 0.28,298.367 c 0,9.746 -56.55,15.82 -67.03,18.453 -13.48,3.387 -57.2,15.301 -70.17,15.301 V 331.871"
         style="fill:#2daae5;fill-opacity:1;fill-rule:evenodd;stroke:none"
         id="path84" /><path
         d="m 407.188,2300.12 c 17.484,-11.33 22.05,-36.26 20.058,-60.24 l -1.379,-2.4 -37.469,21.59 -1.91,21.26 4.766,0.05 -2.07,13.02 z m -40.672,-3.99 c 0,-5.05 1.777,-4.95 4.496,-9 0,-57.37 29.336,-46.35 40.484,-63 l 10.496,-0.94 13.196,-10.5 5.55,-33.56 c 0.071,-0.41 -8.996,-21.25 -8.996,-27 v -4.5 c 0,-11.89 6.313,-30.89 10.422,-38.45 l 5.32,-26.8 c 11.555,-7.74 16.051,-29.25 24.743,-29.25 36.894,0 41.375,67.5 11.246,67.5 h -2.25 c -5.262,0 -8.996,-3.74 -8.996,-9 v -6.75 c 0,-10.1 14.515,-10 15.746,-24.75 -5.043,-1.18 -5.172,-2.25 -11.246,-2.25 -12.262,0 -24.743,43.52 -24.743,56.25 v 18 c 0,12.28 4.5,12.46 4.5,24.75 v 2.25 c 0,10.08 -6.425,12.55 -6.523,27.83 l 44.758,-14.33 c 18.152,0 22.679,3.4 29.344,-8.36 l 31.125,-4.44 13.351,4.89 -0.953,-2.9 19.051,-14.34 0.98,2.7 46.555,-15.8 c 19.004,0 33.859,-2.08 49.519,-2.22 26.329,-0.23 22.278,-14.38 35.946,-18.03 -4.321,-16.21 -35.059,-10.23 -52.082,-15.4 -30.59,-9.29 -25.418,-16.73 -44.672,-29.88 l -20.203,2.53 c -15.399,2.3 -24.344,-5.8 -32.293,-8.2 -6.305,-1.91 -29.227,-3.05 -37.43,-3.05 -4.578,-3.07 -11.25,-8.31 -11.25,-15.75 0,-0.68 12.156,-14.83 13.914,-17.59 3.512,-5.51 4.934,-18.27 7.246,-26.5 2.926,-10.4 0.473,-15.6 4.406,-27.09 3.004,-8.79 7.43,-17.38 9.512,-24.24 8.102,-26.73 13.445,-89.08 43.649,-89.08 12.437,0 29.238,34.02 29.238,51.75 0,23.19 -19.906,65.25 -40.488,65.25 h -2.246 c -4.668,0 -11.247,-6.59 -11.247,-9 0,-7.17 22.028,-27.62 27.61,-33.13 12.672,-12.52 8.375,-27.91 8.375,-47.87 -1.809,-1.26 -5.551,-4.5 -6.746,-4.5 -18.95,0 -23.817,28.17 -27.805,46.43 -2.773,12.72 -19.426,43.58 -19.426,54.82 v 15.75 c 0,12.44 12.965,22.5 24.739,22.5 l 13.542,0.57 36.211,-2.5 6.477,-4.82 c 14.859,0 44.676,-4.29 57.254,-7.98 13.008,-3.83 3.902,-7.22 23.449,-10.3 16.922,-2.66 13.82,0.28 29.508,0.28 20.785,0 44.984,-28.57 44.984,-49.5 v -27 c 0,-3.35 -17.758,-32.8 -29.652,-33.7 l 2.66,22.45 c -1.812,1.25 -5.551,4.5 -6.746,4.5 -7.477,0 -24.742,-17.28 -24.742,-24.75 0,-7.08 16.265,-20.25 29.242,-20.25 h 4.496 c 15.024,0 42.734,44.58 42.734,54 v 20.25 c 0,30.02 -17.832,53.08 -35.988,65.25 -16.429,0 -36.195,1.62 -49.683,4.29 -17.2,3.41 -16.891,8.62 -41.215,12.78 -31.879,5.44 -64.031,9.8 -93.946,17.46 l 11.657,5.97 c 3.179,-1.58 3.738,-2.25 8.996,-2.25 h 4.5 c 9.14,0 25.472,12.37 29.238,18 8.848,0 44.656,2.17 51.02,5.21 29.472,14.08 15.25,-4.65 34.453,24.04 7.98,0 31.484,2.38 31.484,9 0,14.65 -12.676,19.55 -22.574,25.02 l -8.27,-1.27 -45.629,23.5 h -11.242 c -19.926,13.34 -88.308,3.92 -94.468,27 2.742,1.54 2.406,2.25 6.75,2.25 h 4.496 c 43.851,0 48.425,-16.02 93.664,-5.95 6.972,1.55 34.941,15.28 36.972,19.26 2.653,5.19 4.317,37.2 4.317,47.44 v 2.25 c 0,16.71 -9.762,24.65 -23.317,28.42 -9.707,2.7 -14.578,-1.25 -24.058,2.93 -5.723,2.52 -11.727,9.15 -17.852,9.15 -8.129,0 -13.293,-8.95 -13.496,-18 6.309,-1.48 15.094,-2.21 20.328,-4.42 2.168,-0.91 17.617,-9.08 17.906,-9.08 6.864,0 9.079,2.16 13.497,4.5 3.894,-3.39 11.25,-7.08 11.25,-13.5 v -2.25 c 0,-2.76 -13.508,-24.65 -18.231,-26.77 -6.238,-2.8 -30.902,-7.99 -40.305,-7.5 l -29.187,2.77 c -1.813,-1.26 -5.551,-4.5 -6.746,-4.5 -10.356,0 -18.246,6.75 -33.738,6.75 h -24.739 c -13.453,0 -22.742,-2.12 -31.492,-6.75 -5.266,1.22 -6.644,2.25 -13.496,2.25 h -2.246 c -11.293,0 -13.051,-6.44 -20.102,-10.39 l -26.82,4.19 -20.555,10.7 c 0,49.27 0.676,46.15 -21.14,75.6 -23.403,31.58 -55.332,7.16 -55.332,-10.35"
         style="fill:#ea1f2a;fill-opacity:1;fill-rule:evenodd;stroke:none"
         id="path86" /><path
         d="m 1504.61,4708.13 -0.65,-374.18 88.37,-84.82 v 499.5 l -87.72,-40.5"
         style="fill:#2e3192;fill-opacity:1;fill-rule:evenodd;stroke:none"
         id="path88" /><path
         d="m 3513.14,4708.13 -85.47,40.5 0.99,-511.69 84.48,90.94 v 380.25"
         style="fill:#2e3192;fill-opacity:1;fill-rule:evenodd;stroke:none"
         id="path90" /><path
         d="m 1259.45,4561.88 4.93,2.71 197.52,-189.46 -2.27,308.25 c -29.18,-15.45 -188.88,-106.07 -200.18,-121.5"
         style="fill:#2e3192;fill-opacity:1;fill-rule:evenodd;stroke:none"
         id="path92" /><path
         d="m 3747.06,4570.88 c -9.71,13.25 -164.42,100.58 -191.18,114.75 l 0.78,-313.5 190.4,198.75"
         style="fill:#2e3192;fill-opacity:1;fill-rule:evenodd;stroke:none"
         id="path94" /><path
         d="m 2528,527.621 c 0,-8.113 19.98,-10.668 28.8,-16.18 12.82,-8.015 13.16,-8.992 23.49,-19.257 13.03,-12.965 26.42,-34.336 26.42,-59.063 v -18 c 0,-39.137 -42.69,-86.945 -78.71,-87.746 v -60.754 h 69.72 l 56.2,2.703 0.03,303.297 -74.2,-2.797 -51.75,0.551 v -42.754"
         style="fill:#2daae5;fill-opacity:1;fill-rule:evenodd;stroke:none"
         id="path96" /><path
         d="m 2485.26,2737.13 c 0,-15.73 -1.91,-51.47 0.39,-64.86 2.53,-14.79 13.1,-35.78 13.1,-54.39 l 1.14,0.1 12.36,107.9 v 4.5 l 2.25,4.5 c 2.42,29.06 20.88,90.97 30.8,115.43 7.13,17.6 13.4,33.75 21.68,50.32 3.48,6.98 26.24,45.24 26.24,48 v 119.25 c -24.05,-5.61 -35.4,-18 -71.97,-18 h -35.99 v -312.75"
         style="fill:#2e3192;fill-opacity:1;fill-rule:evenodd;stroke:none"
         id="path98" /><path
         d="m 2406.54,421.871 c 0,28.652 11.63,53.445 26.42,68.067 8.78,8.675 14.67,15.769 25.32,21.921 7.67,4.43 29.23,8.286 29.23,15.762 v 42.754 h -24.74 l -101.2,4.867 -0.02,-301.867 125.93,-7.285 0.03,61.285 c -39.64,0.879 -80.97,52.441 -80.97,94.496"
         style="fill:#2daae5;fill-opacity:1;fill-rule:evenodd;stroke:none"
         id="path100" /><path
         d="m 769.121,766.121 c 3.996,4 -4,-4 0,0 z m -65.226,56.254 c 4.734,20.32 47.234,96.828 47.234,110.25 0,5.313 -12.836,14.371 -17.996,15.75 -2.043,-24.582 -65.223,-139.602 -65.223,-155.254 0,-3.125 8.793,-9.609 11.242,-11.25 l 103.227,63.395 c -4.281,-19.805 -49.246,-101.075 -49.246,-110.641 0,-1.504 7.086,-8.395 8.996,-11.25 l 143.863,81.156 -56.601,-152.988 11.191,-11.93 102.133,69.664 -46.371,-116.015 c 4.469,-2.727 9.172,-7.141 14.476,-7.141 0.149,0 128.1,82.399 139.45,90 -2.89,4.324 -11.61,15.75 -17.99,15.75 -4.38,0 -85.999,-61.918 -98.967,-63 4.32,18.555 42.734,100.348 42.734,108 0,2.031 -11.438,9.875 -13.492,11.25 l -96.723,-65.242 41.129,112.25 -32.938,28.629 -102.039,-58.699 c 0.856,18.718 46.621,96.093 46.621,106.812 0,1.949 -9.3,11.25 -11.246,11.25 -10.839,0 -88.476,-56.746 -103.464,-60.746"
         style="fill:#2e2c2a;fill-opacity:1;fill-rule:evenodd;stroke:none"
         id="path102" /><path
         d="m 384.508,3259.13 v -4.5 c 0,-15.32 7.129,-57.15 11.562,-69.44 4.391,-12.15 5.231,-17.03 11.68,-28.81 4.117,-7.52 17.242,-22.57 17.242,-25.5 v -2.25 c 0,-7.82 -4.496,-3.44 -4.496,-11.25 v -29.25 c 0,-19.49 15.832,-56.63 22.824,-71.67 5.332,-11.48 31.563,-49.83 44.653,-49.83 h 8.996 c 11.293,0 13.051,6.43 19.683,11.33 l 2.809,17.92 c 0.32,2 -10.211,32.96 -12.031,37.46 -3.551,8.75 -23.465,18.79 -30.703,18.79 h -4.5 c -4.668,0 -11.247,-6.59 -11.247,-9 0,-6.87 4.239,-18 11.247,-18 7.816,0 3.433,4.5 11.246,4.5 11.332,0 22.132,-26.63 22.492,-42.75 h -8.996 c -19.598,0 -44.512,34.67 -49.543,49.43 -11.481,33.65 -13.434,43.48 -13.434,83.32 6.262,-4.2 23.043,-22.5 29.238,-22.5 l 6.473,-0.09 2.524,-8.91 h 6.746 c 2.715,0 60.3,-30.45 65.23,-33.75 h 11.242 c 8.215,-12.27 9.446,-8.38 22.586,-13.41 10.778,-4.12 10.625,-8.8 22.352,-13.64 23.265,-9.6 24.09,-18.94 42.785,-31.45 0,-15.1 4.496,-16.7 4.496,-22.5 0,-15.34 -19.187,-36 -33.738,-36 -7.754,0 -8.707,1.66 -15.742,2.25 1.429,17.19 13.492,4.91 13.492,18 0,7.8 -16.981,11.25 -24.738,11.25 -7.84,0 -17.997,-10.16 -17.997,-18 0,-18.85 27.411,-27 47.235,-27 h 6.746 c 17.633,0 36.75,37.2 43.726,49.54 l 1.262,22.46 c 0.563,15.61 -8.652,11.48 -9,27 -16.691,8.83 -8.93,14.03 -16.621,23.87 -0.894,1.14 -25.332,11.89 -28.789,13.95 -9.996,5.97 -16.75,13.37 -27.406,15.33 -16.508,3.04 -20.571,2.65 -28.395,14.35 -15.019,0 -18.609,4.33 -24.742,13.5 l -10.684,0.42 -9.562,10.83 c -5.043,-1.18 -5.168,-2.25 -11.246,-2.25 -4.602,0 -4.133,4.63 -4.496,9 h -6.746 c -3.071,0 -47.235,20.39 -47.235,31.5 v 2.25 c 0,45.17 27.266,33.75 64.914,33.12 l 16.059,-6.12 v -9 c 4.789,-2.54 14.078,-11.4 13.957,-18.04 l -2.715,-35.96 c 15.336,0.34 7.02,4.5 15.746,4.5 h 6.75 c 1.442,6.03 2.246,4.24 2.246,9 0,5.41 -3.64,6.61 -6.746,11.25 0,39.28 -31.695,90 -69.726,90 -10.493,0 -7.055,-4.5 -22.493,-4.5 -13.3,-19.88 -29.238,-37.77 -29.238,-72 l -2.152,-1.02 -11.84,29.77 -9.297,9.5 0.797,63 v 13.5 c 0,5.26 -3.734,9 -8.996,9 h -11.246 c -0.879,-10.55 -4.5,-11.13 -4.5,-22.5"
         style="fill:#ed1c24;fill-opacity:1;fill-rule:evenodd;stroke:none"
         id="path104" /><path
         d="m 584.848,2405.43 c 31.086,-5.81 89.59,-16.64 92.031,-46.42 l -76.168,17.11 -1.809,-1.93 z m -42.895,149.45 2.25,-36 h -9 c -6.449,0 -28.676,22.99 -29.238,-2.25 4.238,-0.99 34.637,-23.53 38.211,-27.03 8.765,-8.59 5.855,-37.7 29.265,-38.22 -7.105,-10.62 -3.488,-11.65 2.25,-22.5 -1.574,-3.18 -2.25,-3.74 -2.25,-9 v -11.25 c 0,-5.42 3.645,-6.62 6.747,-11.25 0,-15.6 -2.383,-23.17 7.589,-30.67 11.254,-8.45 12.938,-15.55 19.871,-20.62 1.352,-0.99 21.332,-9.51 27.497,-13.01 3.761,-2.13 25.91,-3.2 32.765,-3.2 17.031,0 24.738,14.15 24.738,31.5 0,16.11 -19.085,18.74 -22.515,31.6 l 13.519,2.15 c 2.547,9.55 4.5,3.93 4.5,11.25 v 4.5 c 0,14.17 -19.027,24.34 -28.793,28.8 l -5.5,-4.47 11.86,-16.83 -24.801,1.5 c -12.656,8.47 -33.355,15.75 -52.883,16.57 l -12.89,15.61 -13.161,31.9 52.215,-7.51 6.477,-4.82 c 13.742,0 17.179,-4.5 29.238,-4.5 12.984,0 22.492,10.44 22.492,22.5 v 6.75 c 0,40.38 -31.828,37.7 -42.808,53.5 l -13.422,2.75 c -4.961,-2.63 -8.996,-1.97 -8.996,-9 v -2.25 c 0,-13.36 27.695,-8.69 37.398,-14.34 6.328,-3.69 6.871,-10.61 8.016,-19.34 2.48,-18.9 -4.254,-0.75 -9.426,-13.57 -24.227,6.47 -26.695,14.28 -56.625,17.43 -14.398,1.52 -24.082,-1.05 -27.266,11.14 -1.941,7.43 0.766,34.43 -6.078,34.43 -3.543,0 -8.523,-1.2 -11.246,-2.25"
         style="fill:#ed1c24;fill-opacity:1;fill-rule:evenodd;stroke:none"
         id="path106" /><path
         d="m 4221.64,820.121 c 0,14.598 23.65,38.254 38.24,38.254 h 8.99 c 19.48,0 40.15,-29.367 51.18,-41.051 5.77,-6.097 39.93,-44.777 41.04,-48.949 l 17.73,13.785 c -13.71,20.578 -80.2,100.961 -107.7,100.961 h -4.49 c -32.72,0 -67.48,-35.512 -67.48,-67.496 v -6.754 h -22.49 c -27.33,0 -58.48,-33.625 -60.73,-60.75 l -10.86,9.418 -16.66,-15.641 104.72,-119.144 19.56,12.812 c -13.89,20.727 -76.52,72.926 -76.52,99.059 v 2.246 c 0,26.43 21.49,49.504 47.23,49.504 h 2.25 c 29.18,0 72.53,-75.309 94.47,-90 l 14.01,12.977 c -14.01,20.675 -72.49,77.488 -72.49,97.273 v 13.496"
         style="fill:#2e2c2a;fill-opacity:1;fill-rule:evenodd;stroke:none"
         id="path108" /><path
         d="m 1313.82,509.484 -20.28,9.864 -70.02,-145.91 2.52,-0.387 15.44,-7.371 c 21.37,14.277 38.7,112.441 80.95,112.441 h 6.74 c 17.1,0 44.99,-20.297 44.99,-38.25 v -6.75 c 0,-24.101 -45.09,-84.367 -47.24,-110.25 l 17.74,-7.316 c 16.67,31.605 41,113.066 83.48,113.066 18.42,0 44.98,-17.652 44.98,-36 v -9 c 0,-20.66 -41.16,-81.926 -47.23,-108 l 19.89,-9.726 c 7.87,33.027 49.83,87.3 49.83,119.976 v 9 c 0,27.961 -33.02,54 -60.73,54 h -17.99 c -10.42,0 -6.76,-4.195 -20.24,-4.496 -0.71,31.848 -39.2,54 -74.22,54 -8.48,0 -4.26,-1.484 -13.29,-2.328 l 4.68,13.437"
         style="fill:#2e2c2a;fill-opacity:1;fill-rule:evenodd;stroke:none"
         id="path110" /><path
         d="m 62.875,1292.63 c 0.5859,2.2 58.234,54.92 65.785,62.43 19.254,19.16 41.82,47.85 58.293,69.94 23.168,31.09 94.742,115.12 141.324,115.12 h 20.243 c 30.367,0 59.281,-33.42 75.914,-50.05 24.242,-24.26 36.621,-38.41 65.789,-57.95 l 4.621,8.94 c -50.223,26.58 -90.774,110.32 -155.321,110.32 -67.519,0 -126.75,-82.06 -160.238,-120.96 -23.039,-26.76 -39.937,-51.17 -65.238,-76.49 -12.949,-12.95 -22.5197,-21.47 -36.0079,-33.73 -8.2618,-7.5 -37.2149,-26.15 -39.9063,-29.82 11.9531,-1 38.2344,-10.19 54.5352,-12.95 19.613,-3.32 40.398,-5.05 62.422,-5.05 h 58.48 l 74.18,5.04 c -1.238,-15.95 -8.836,-37.47 -9.035,-56.71 -0.227,-21.43 -2.238,-39.28 -2.223,-63.14 0.024,-37.65 2.305,-84.11 2.305,-125.94 56.848,38.07 87.234,74.68 131,125.44 24.262,28.14 94.117,117.59 127.66,126.56 l -2.527,8.91 c -27.196,-6.32 -106.328,-94.99 -124.746,-120.1 -17.43,-23.76 -98.075,-114.07 -122.391,-120.57 v 15.76 c 0,66.79 -8.469,174.7 13.496,220.49 l -112.387,-7.83 -31.562,1.09 -94.465,11.25"
         style="fill:#ffffff;fill-opacity:1;fill-rule:evenodd;stroke:none"
         id="path112" /><path
         d="m 2165.88,131.621 c 0,31.996 25.79,63 56.22,63 h 6.75 c 28.99,0 53.98,-30 53.98,-63 0,-33.0116 -22.6,-62.9999 -53.98,-62.9999 h -11.24 c -26.75,0 -51.73,29.9414 -51.73,58.4999 z m 6.74,65.25 c 0,12.984 5.37,22.504 -4.5,22.504 h -17.99 L 2130.54,23.5547 2129.89,7.87109 h 13.49 c 13.91,0 8.69,8.53911 11.18,29.32031 1.45,12.0625 3.59,28.75 4.57,40.4297 18.76,-12.5703 25.48,-31.5 60.73,-31.5 h 15.74 c 33.49,0 71.97,42.082 71.97,76.4999 v 13.5 c 0,44.406 -38.64,78.75 -85.47,78.75 -26.44,0 -34.2,-7.766 -49.48,-18"
         style="fill:#2e2c2a;fill-opacity:1;fill-rule:evenodd;stroke:none"
         id="path114" /><path
         d="m 4543.27,1409.63 c 25.59,0 76.81,90 125.96,90 h 2.25 c 63.77,0 122.16,-76.34 153.56,-114.14 20.02,-24.1 38.8,-50.23 59.52,-73.21 7.62,-8.46 25.6,-27.07 33.91,-33.58 8.55,-6.7 31.46,-22.07 36.41,-28.83 l -85.2,-13.14 -63.25,1.9 -92.23,6.6 c 8.42,-17.38 17.09,-83.46 15.76,-112.36 l -5.1,-123.72 c -29.47,15.89 -99.72,92.6 -120.87,121.46 -17.9,24.41 -96.43,112.91 -123.69,119.26 l -2.53,-8.91 c 47.11,-24.87 93.3,-88.36 129.06,-127.76 46.86,-51.63 69.64,-83.97 129.87,-124.329 0,87.089 8.13,171.729 -8.99,245.249 l 87.67,-5.39 58.53,0.9 c 42.22,0 70.61,10.34 103.46,18 -27.37,23.8 -50.66,36.37 -79.29,64.68 -22.93,22.67 -43.02,54.32 -65.24,78.73 -41.47,45.58 -84.14,117.59 -168.11,117.59 -29.66,0 -53.4,-27.54 -69.16,-43.32 -6.75,-6.74 -56.25,-51.38 -56.79,-53.43 5.54,-3.12 -0.58,-2.25 4.49,-2.25"
         style="fill:#ffffff;fill-opacity:1;fill-rule:evenodd;stroke:none"
         id="path116" /><path
         d="m 2528,115.871 c 0,22.422 26.38,56.25 47.23,56.25 h 24.74 c 24.56,0 47.23,-33.699 47.23,-60.746 0,-28.9922 -23.58,-63 -49.48,-63 h -15.74 c -27.44,0 -53.98,32.0352 -53.98,60.746 z m -21.95,-6.734 -0.55,-81.0159 h 24.74 V 48.375 l 33.56,-20.5625 c 33.53,0.3086 55.33,-3.5977 76.15,16.5625 18.59,18.0039 29.74,28.6875 29.74,64.746 v 15.75 c 0,30.359 -38.61,69.75 -69.72,69.75 h -22.49 c -21.35,0 -37.35,-18.871 -49.48,-27 v 74.25 l -25.26,-0.012 3.31,-132.722"
         style="fill:#2e2c2a;fill-opacity:1;fill-rule:evenodd;stroke:none"
         id="path118" /><path
         d="m 1981.44,165.375 c 0,24.156 30.02,56.246 56.23,56.246 h 6.74 c 29.36,0 56.23,-28.094 56.23,-58.5 v -9 c 0,-24.043 -32.4,-58.4999 -56.23,-58.4999 h -8.99 c -28.19,0 -53.98,30.8789 -53.98,58.4999 z m 32.34,137.043 -7.6,0.203 c -8.17,0 -7.89,2.672 -15.75,4.5 l -48.04,-209.0585 23.25,-2.8555 4.17,16.281 c 17.57,-12.7146 26.14,-36.113 63.36,-36.113 h 11.24 c 40.64,0 78.73,37.078 78.73,76.496 v 9 c 0,45.988 -34.39,83.25 -78.73,83.25 -24.87,0 -30.99,-9.715 -47.81,-13.359 l 17.18,71.656"
         style="fill:#2e2c2a;fill-opacity:1;fill-rule:evenodd;stroke:none"
         id="path120" /><path
         d="m 1048.02,547.871 c 4,4 -4,-4 0,0 z m 35.34,108.211 -18.69,16.691 -50.33,-160.918 10.68,-11.746 96.91,72.93 c -1.44,-21.473 -35.67,-96.441 -35.67,-108.418 v -2.246 c 0,-5.598 5.62,-8.465 8.99,-13.504 l 140.54,99.734 c -5.44,3.825 -17.93,12.77 -21.33,12.77 -0.87,0 -84.94,-61.121 -94.46,-67.504 1.9,22.856 35.98,95.672 35.98,108 0,6.426 -7.35,10.117 -11.24,13.504 l -96.18,-66.949 34.8,107.656"
         style="fill:#2e2c2a;fill-opacity:1;fill-rule:evenodd;stroke:none"
         id="path122" /><path
         d="m 1614.82,214.871 c -4,-4 4,4 0,0 z m -29.24,18 h -9 c -28.03,0 -51.73,26.762 -51.73,56.25 v 11.254 c 0,23.715 29.75,56.246 51.73,56.246 h 20.24 c 22.43,0 47.24,-30.363 47.24,-54 v -13.5 c 0,-23.734 -32.9,-56.25 -58.48,-56.25 z m 105.92,105.664 -22.45,7.617 -7.59,-19.523 c -3.86,27.223 -41.48,52.492 -71.38,52.492 h -11.25 c -43.09,0 -78.72,-43.691 -78.72,-87.746 0,-40.062 42.51,-87.602 80.97,-81 l 31.49,4.484 -4.66,-17.937 20.43,-6.809 63.16,148.422"
         style="fill:#2e2c2a;fill-opacity:1;fill-rule:evenodd;stroke:none"
         id="path124" /><path
         d="m 1785.76,210.375 c 0,27.629 31.3,60.746 60.72,60.746 28.66,0 58.48,-25.266 58.48,-49.5 v -22.5 c 0,-25.234 -32.85,-54 -60.72,-54 -32.19,0 -58.48,28.645 -58.48,58.5 z m 161.67,54.074 -22.02,5.223 -5.24,-20.899 c -10.13,7.676 -5.83,18.895 -27.61,30.192 -16.97,8.808 -20.53,12.41 -46.08,12.41 h -15.74 c -35.34,0 -67.47,-45.949 -67.47,-87.754 v -4.5 c 0,-35.355 36.13,-74.25 69.72,-74.25 h 26.99 c 6.07,0 20.27,6.637 24.74,9 l -2.74,-20.172 21.19,-4.707 44.26,155.457"
         style="fill:#2e2c2a;fill-opacity:1;fill-rule:evenodd;stroke:none"
         id="path126" /><path
         d="m 681.402,3448.13 c 16.176,-1.35 56.231,-32.79 56.231,-47.25 0,-60.06 -56.231,5.9 -56.231,47.25 z m -80.968,105.75 c 0,-34.93 1.031,-22.19 -15.746,-47.25 0,-16.7 -4.5,-14.81 -4.5,-24.75 v -6.75 c 0,-14.88 7.035,-26.43 17.23,-32.27 14.52,-8.31 18.445,-17.38 28.469,-23.27 5.855,-3.45 28.426,-16.78 31.465,-20.27 8.058,-9.27 6.972,-25.02 26.3,-25.44 5.254,-9.94 10.946,-21.05 22.453,-24.79 25.715,-8.36 12.137,-24.71 24.782,-24.71 h 8.996 c 1.172,5.04 2.246,5.17 2.246,11.25 v 11.25 c 0,3.34 -4.856,9.92 -6.746,13.5 7.894,5.28 22.492,35.47 22.492,47.25 0,15.87 -18.453,36.96 -28.66,45.58 -5.813,4.9 -36.09,33.17 -41.063,33.17 h -9 c -6.351,0 -8.675,-5.17 -12.945,-9.2 l 6.199,-53.8 c -12.636,2.94 -29.054,19.77 -35.984,29.25 -5.375,7.35 -9.348,12.42 -18.453,15.29 -18.004,5.67 -7.321,10.63 -19.785,13.96 0,27.22 24.738,46.92 24.738,56.25 0,4.69 -5.567,22.5 -13.492,22.5 -4.344,0 -8.996,-4.02 -8.996,-6.75"
         style="fill:#ed1c24;fill-opacity:1;fill-rule:evenodd;stroke:none"
         id="path128" /><path
         d="m 3013.82,176.621 c 0,19.922 28.07,51.754 47.23,51.754 h 13.5 c 30.52,0 58.48,-28.422 58.48,-58.504 0,-31.418 -21.46,-65.25 -51.73,-65.25 h -13.5 c -28.58,0 -53.98,30.527 -53.98,60.754 z m 69.73,-94.4999 c 31.98,0 54.1,35.8829 62.97,38.2539 12.68,-26.4375 -10.15,-14.281 24.74,-13.504 l -37.98,157.567 c -5.47,-0.18 -21.32,-1.922 -20.88,-6.883 l 3.02,-17.867 c -8.62,4.296 -19.86,11.183 -31.87,11.183 h -15.75 c -38.57,0 -76.47,-35.562 -76.47,-74.25 v -18 c 0,-35.664 38.51,-76.4999 71.97,-76.4999 h 20.25"
         style="fill:#2e2c2a;fill-opacity:1;fill-rule:evenodd;stroke:none"
         id="path130" /><path
         d="m 631.918,2750.63 h -11.242 c -29.496,0 -72.754,56.25 -53.981,56.25 18.5,0 65.223,-19.69 65.223,-38.25 z m -177.684,132.75 v -2.25 c 0,-8.28 6.746,-5.23 6.746,-13.5 v -11.25 c 0,-1.97 -7.625,-20.46 -8.996,-22.5 7.188,-14.99 -4.461,-22.63 8.356,-38.9 16.496,-20.94 8.73,-9.19 27.633,-21.85 19.828,0 25.312,-18 60.726,-18 15.27,-22.81 34.582,-19.09 44.43,-27.56 19.078,-16.41 43.836,-5.99 45.613,-26.79 l 13.418,2.6 v 9 c 0,15.96 -5.258,15.81 -11.242,24.75 l 2.379,-0.17 2.117,58.67 c -18.68,12.51 -13.566,20.1 -37.793,27.44 -6.781,2.06 -43.91,19.81 -47.676,19.81 h -6.746 c -5.246,0 -11.246,-6.01 -11.246,-11.25 v -2.25 c 0,-28.41 13.551,-30.43 17.992,-49.5 h -6.746 c -5.043,0 -4.937,1.78 -8.996,4.5 h -11.246 c -17.156,11.48 -16.93,20.25 -40.488,20.25 -8.426,0 -11.617,8.09 -24.278,9.31 l 10.782,51.44 v 6.75 c 0,1.88 -9.746,18.01 -11.243,20.25 -6.792,-1.59 -13.496,-1.31 -13.496,-9"
         style="fill:#ed1c24;fill-opacity:1;fill-rule:evenodd;stroke:none"
         id="path132" /><path
         d="m 2001.68,1191.38 v -4.51 c 0,-29.05 32.96,-51.75 62.98,-51.75 31.79,0 65.23,22.46 65.23,54 v 4.51 c 0,23.06 -31.78,49.49 -56.23,49.49 h -15.75 c -26.23,0 -56.23,-25.58 -56.23,-51.74"
         style="fill:#2daae5;fill-opacity:1;fill-rule:evenodd;stroke:none"
         id="path134" /><path
         d="m 2919.36,1191.38 v -2.26 c 0,-29.21 32.23,-54 60.72,-54 h 6.75 c 29.87,0 60.73,24.99 60.73,56.26 0,26.02 -30.24,51.74 -56.23,51.74 h -15.74 c -26,0 -56.23,-25.72 -56.23,-51.74"
         style="fill:#2daae5;fill-opacity:1;fill-rule:evenodd;stroke:none"
         id="path136" /><path
         d="m 1821.75,1189.12 c 0,-29.4 32.31,-54 60.73,-54 h 2.24 c 29.35,0 65.23,22.45 65.23,49.51 v 2.24 c 0,32.76 -28,56.25 -60.73,56.25 h -11.24 c -27.25,0 -56.23,-26.69 -56.23,-54"
         style="fill:#2daae5;fill-opacity:1;fill-rule:evenodd;stroke:none"
         id="path138" /><path
         d="m 3099.29,1193.63 v -6.76 c 0,-28.06 32.51,-51.75 60.73,-51.75 30.59,0 65.22,20.43 65.22,49.51 v 13.49 c 0,21.34 -31.82,45 -53.98,45 h -11.24 c -29.26,0 -60.73,-20.57 -60.73,-49.49"
         style="fill:#2daae5;fill-opacity:1;fill-rule:evenodd;stroke:none"
         id="path140" /><path
         d="m 3344.45,264.375 c 0,35.711 24.32,63 58.48,63 34.11,0 60.73,-32.219 60.73,-67.504 v -2.25 c 0,-27.23 -23.66,-56.246 -47.23,-56.246 h -15.75 c -27.01,0 -56.23,31.699 -56.23,56.246 z m -24.74,2.246 c 0,-48.488 36.84,-87.75 85.47,-87.75 47.71,0 83.22,37.422 83.22,83.25 0,40.43 -37.31,85.5 -74.22,85.5 h -24.74 c -33.99,0 -69.73,-44.34 -69.73,-81"
         style="fill:#2e2c2a;fill-opacity:1;fill-rule:evenodd;stroke:none"
         id="path142" /><path
         d="m 3992.22,622.121 c 0,29.965 24.03,54 53.98,54 h 6.75 c 27.82,0 60.73,-31.016 60.73,-56.25 v -18 c 0,-25.039 -34.23,-53.32 -63.85,-48.226 -27.77,4.777 -57.61,26.066 -57.61,54.976 z m 65.23,-92.25 c 44.2,0 78.72,38.254 78.72,85.504 v 9 c 0,33.438 -39.68,74.25 -76.47,74.25 h -22.49 c -34.55,0 -67.48,-40.02 -67.48,-81.004 v -9 c 0,-40.754 42.16,-78.75 83.22,-78.75 h 4.5"
         style="fill:#2e2c2a;fill-opacity:1;fill-rule:evenodd;stroke:none"
         id="path144" /><path
         d="m 3948.15,575.945 c -14.81,8.535 -26.19,16.926 -48.15,16.926 h -8.99 c -29.56,0 -71.97,-40.289 -71.97,-72 v -11.25 c 0,-49.129 37.55,-87.75 85.46,-87.75 36.63,0 80.97,36.074 80.97,69.75 v 15.754 l -2.51,20.207 -20.9,-14.586 c 0.92,-38.551 -20.29,-68.621 -55.31,-68.621 -30.35,0 -65.23,30.203 -65.23,56.246 v 13.5 c 0,29.965 24.03,54 53.99,54 H 3909 c 5.17,0 16.29,-4.848 20.3,-6.816 l 18.85,14.64"
         style="fill:#2e2c2a;fill-opacity:1;fill-rule:evenodd;stroke:none"
         id="path146" /><path
         d="m 2365.41,199.172 -21.85,-0.051 -7.99,-114.6718 c -0.71,-30.8789 30.73,-54.0742 61.97,-54.0742 h 15.75 c 13.43,0 23.92,10.6797 31.48,15.7461 V 30.375 h 22.5 l 11.08,162.008 -24.58,-0.008 v -18 c 0,-53.219 2.81,-121.5039 -49.48,-121.5039 h -4.5 c -30.14,0 -40.49,17.2852 -40.49,47.2499 l -1.13,6.84 7.24,92.211"
         style="fill:#2e2c2a;fill-opacity:1;fill-rule:evenodd;stroke:none"
         id="path148" /><path
         d="m 2838.38,133.871 c 0,37.375 22.88,63 60.73,63 29.77,0 32.68,-15.742 49.48,-27 l 22.42,2.82 c -5.85,21.641 -38.23,46.684 -67.4,46.684 h -9 c -37.43,0 -78.72,-36.621 -78.72,-72 v -22.504 c 0,-34.9022 42.32,-76.496 74.22,-76.496 h 6.75 c 38.93,0 80.16,30.7344 80.97,67.496 l -24.67,-2.859 c -2.69,-30.9026 -32.38,-42.1409 -67.54,-42.1409 -7.05,0 -28.16,17.6172 -33.27,22.9727 -6.7,7.0232 -13.97,26.6912 -13.97,40.0272"
         style="fill:#2e2c2a;fill-opacity:1;fill-rule:evenodd;stroke:none"
         id="path150" /><path
         d="m 2485.26,4946.63 h 107.96 l -0.01,82.72 -107.95,2.78 v -85.5"
         style="fill:#ed1c24;fill-opacity:1;fill-rule:evenodd;stroke:none"
         id="path152" /><path
         d="m 3515.39,352.121 c 0,18.871 27.45,38.254 47.24,38.254 h 6.74 c 29.77,0 58.58,-91.684 71.98,-117 l 20.26,8.949 c -17.59,36.688 -44.08,130.547 -89.99,130.547 h -8.99 c -23.88,0 -56.39,-21.867 -60.73,-40.496 h -4.5 l -4.42,11.281 -20.25,-9.211 65.79,-148.039 19.25,9.442 c -6.36,28.093 -42.38,81.058 -42.38,109.527 v 6.746"
         style="fill:#2e2c2a;fill-opacity:1;fill-rule:evenodd;stroke:none"
         id="path154" /><path
         d="m 3162.27,4847.63 98.96,-31.5 0.05,90.15 -99.01,29.1 v -87.75"
         style="fill:#ed1c24;fill-opacity:1;fill-rule:evenodd;stroke:none"
         id="path156" /><path
         d="m 2892.36,4912.88 101.22,-18 0.01,85.56 -101.23,17.94 v -85.5"
         style="fill:#ed1c24;fill-opacity:1;fill-rule:evenodd;stroke:none"
         id="path158" /><path
         d="m 3659.34,435.375 c 0,7.16 11.46,15.746 20.24,15.746 h 2.25 c 13.64,0 15.91,-11.25 20.24,-11.25 3.73,0 16.8,7.18 20.25,9 -2.68,11.477 -15.49,24.75 -29.24,24.75 h -17.99 c -21.23,0 -40.49,-25.043 -40.49,-49.5 v -2.25 c 0,-17.301 19.95,-38.25 38.24,-38.25 h 2.25 c 30.3,0 67.47,9.731 67.47,-24.75 0,-9.789 -12.92,-24.75 -24.74,-24.75 -16.75,0 -25.67,9.254 -31.49,20.254 l -19.89,-9.727 c 0.9,-14.316 25.37,-33.027 40.13,-33.027 h 13.5 c 16.99,0 44.98,23.926 44.98,40.5 v 13.5 c 0,20.649 -18.46,45 -38.23,45 -24.57,0 -67.48,-15.98 -67.48,15.754 v 9"
         style="fill:#2e2c2a;fill-opacity:1;fill-rule:evenodd;stroke:none"
         id="path160" /><path
         d="m 1180.72,4217.63 c -9.88,7.24 -2.38,18 -13.49,18 h -9 c -5.04,0 -4.93,-1.78 -8.99,-4.5 0,-24.32 -21.67,-46.34 -22.5,-56.25 h 6.75 c 9.23,0 17.18,17.16 17.99,27 10.32,-2.76 27.23,-49.91 35.99,-63 -6.89,-13.03 -17.99,-9.88 -17.99,-15.75 0,-5.25 6,-11.25 11.24,-11.25 h 4.5 c 7.55,0 24.74,22.74 24.74,29.25 v 15.75 c 0,9.26 -9.94,27.61 -16.57,31.51 l 0.89,27.42 6.68,33.32 c 13.1,-9.6 24.2,-69.75 44.99,-69.75 h 9 c 26.49,0 12.74,47.25 9,47.25 -5.05,0 -4.94,-1.78 -9,-4.5 v -15.75 c -13.08,18.82 -21.65,74.25 -49.49,74.25 -12.3,0 -14.52,-55.52 -24.74,-63"
         style="fill:#ed1c24;fill-opacity:1;fill-rule:evenodd;stroke:none"
         id="path162" /><path
         d="m 1504.61,4708.13 87.72,40.5 -0.32,92.94 -87.4,-38.94 v -94.5"
         style="fill:#ed1c24;fill-opacity:1;fill-rule:evenodd;stroke:none"
         id="path164" /><path
         d="m 613.926,3315.38 c 0,-17.04 34.094,-26.06 43.191,-40.05 2.965,-4.56 2.969,-9.42 5.5,-14.75 3.406,-7.18 5.461,-5.49 8.801,-11.44 2.227,-3.98 14.48,-27.3 14.48,-28.26 0,-8.02 -12.265,-9 -20.242,-9 -18.449,0 -53.058,40.5 -53.98,40.5 h -6.746 c -5.043,0 -4.938,-1.78 -8.414,-4.58 l -2.832,-17.92 c 11.664,-6.18 8.996,-14.36 8.996,-31.5 1.699,-2.54 5.281,-9 8.996,-9 6.015,0 6.656,3.25 9.078,6.76 l -2.328,11.24 c 17.367,-1.45 20.726,-24.75 42.734,-24.75 h 15.746 c 8.395,0 22.489,19.21 22.489,29.25 v 15.75 c 0,11.02 -17.516,10.15 -17.993,31.5 3.61,-2.42 12.649,-9 17.993,-9 7.964,0 15.746,13.96 15.746,22.5 v 11.25 c 0,6.09 -10.356,15.22 -13.211,20.53 -3.91,7.28 -6.317,22.22 -13.778,22.22 -5.183,0 -6.75,-1.57 -6.75,-6.75 v -4.5 c 0,-5.99 5.856,-12.06 10.688,-13.59 l 2.808,-17.91 c -1.351,0.11 -32.886,18.49 -35.648,20.58 -6.312,4.81 -12.016,5.82 -16.16,10.84 -4.766,5.75 -6.574,11.33 -17.918,11.33 -5.242,0 -11.246,-6 -11.246,-11.25"
         style="fill:#ed1c24;fill-opacity:1;fill-rule:evenodd;stroke:none"
         id="path166" /><path
         d="m 3427.67,4748.63 85.47,-40.5 -0.16,94.14 -85.31,36.36 v -90"
         style="fill:#ed1c24;fill-opacity:1;fill-rule:evenodd;stroke:none"
         id="path168" /><path
         d="m 868.086,3841.88 v 6.75 c 0,5.14 9.355,17.48 13.496,20.25 4.41,-18.94 38.234,-47.12 38.234,-78.75 v -9 c 0,-6.81 -2.644,-6.23 -8.996,-6.75 -0.793,9.55 -42.734,61.91 -42.734,67.5 z m 20.242,65.25 v -11.25 c -5.824,-3.09 -20.242,-14.99 -20.242,-22.5 v -9 c -20.848,-5.58 -13.496,-30.38 -13.496,-56.25 10.074,-15.05 22.324,-54 44.984,-54 h 11.246 c 7.758,0 16.731,12.75 20.578,17.99 l -0.269,29.64 17.93,-2.63 c 19,-3.22 13.679,47.25 4.496,47.25 -9.746,0 -6.746,-10.24 -6.746,-20.25 -17.215,19.81 -10.039,6.67 -23.157,33.08 -3.621,7.29 -19.011,26.85 -24.078,34.42 1.578,3.17 2.25,3.73 2.25,9 v 2.25 c 0,3.68 -1.347,6.75 -4.5,6.75 -3.644,0 -7.152,-2.7 -8.996,-4.5"
         style="fill:#ed1c24;fill-opacity:1;fill-rule:evenodd;stroke:none"
         id="path170" /><path
         d="m 555.445,2658.38 c 26.883,-6.27 84.817,-24.63 85.473,-54 -5.719,0.47 -43.309,14.03 -52.582,17.14 -22.949,7.69 -32.231,7.32 -32.891,36.86 z m -13.492,40.5 c 0,-8.32 1.145,-10.93 4.496,-15.75 -1.258,-1.82 -4.496,-5.56 -3.746,-6.75 l -0.75,-13.5 c 0,-5.42 3.645,-6.62 6.746,-11.25 -1.226,-5.27 -2.25,-6.65 -2.25,-13.5 v -4.5 c 0,-9.32 21.059,-31.64 26.992,-40.5 17.063,0 30.418,-18 53.981,-18 18.699,0 26.992,11.92 26.992,31.5 v 6.75 c 0,7.75 -14.578,17.83 -17.996,22.5 2.633,3.79 0.324,4.5 6.75,4.5 h 6.746 c 2.758,10.33 11.313,14.71 2.723,27.45 -3.43,5.08 -15.789,17.55 -22.965,17.55 -11.262,0 3.16,-15.25 4.519,-20.04 l -22.515,2.04 c -6.492,4.35 -38.852,22.5 -47.231,22.5 h -9 c -0.136,6.3 -1.175,13.5 -6.746,13.5 -3.679,0 -6.746,-1.35 -6.746,-4.5"
         style="fill:#ed1c24;fill-opacity:1;fill-rule:evenodd;stroke:none"
         id="path172" /><path
         d="m 622.922,3659.63 0.183,-22.49 -0.183,-13.51 c 0.762,-9.69 14.336,-29.33 22.492,-31.5 0.332,-14.78 46.824,-46.63 57.879,-59.11 7.609,-8.59 21.793,-18.07 31.48,-27 6.473,-5.98 11.864,-6.49 18.684,-10.56 8.68,-5.18 5.984,-10.54 11.84,-21.21 l -9.672,-5.87 v -6.75 c 0,-19 26.988,2.73 26.988,15.75 v 4.5 c 0,15.89 -6.195,34.12 -16.629,41.86 -7.89,5.85 -25.101,24.79 -32.851,25.64 -1.309,11.98 -41.707,33.97 -46.863,43.12 -5.125,9.09 -47.602,32.23 -47.602,44.63 v 15.75 c 0,7.81 4.5,3.43 4.5,11.25 v 2.25 c 0,5.18 -1.566,6.75 -6.75,6.75 h -2.246 c -5.684,0 -11.25,-9.33 -11.25,-13.5"
         style="fill:#ed1c24;fill-opacity:1;fill-rule:evenodd;stroke:none"
         id="path174" /><path
         d="m 2235.6,4930.88 87.72,9 v 83.25 c -7.02,0 -79.62,-5.88 -83.02,-6.95 -10.61,-3.33 -4.7,-69.98 -4.7,-85.3"
         style="fill:#ed1c24;fill-opacity:1;fill-rule:evenodd;stroke:none"
         id="path176" /><path
         d="m 1853.23,4847.63 85.47,24.75 -0.54,87.46 -84.93,-24.46 v -87.75"
         style="fill:#ed1c24;fill-opacity:1;fill-rule:evenodd;stroke:none"
         id="path178" /><path
         d="m 1981.44,4883.63 85.47,18 -0.25,86.66 -85.22,-19.16 v -85.5"
         style="fill:#ed1c24;fill-opacity:1;fill-rule:evenodd;stroke:none"
         id="path180" /><path
         d="m 2764.16,4933.13 85.47,-11.25 c 0,15.3 5.89,82 -4.7,85.3 -5.72,1.78 -72.64,9.2 -80.77,9.2 v -83.25"
         style="fill:#ed1c24;fill-opacity:1;fill-rule:evenodd;stroke:none"
         id="path182" /><path
         d="m 2109.64,4910.63 83.22,13.5 v 85.5 c -4.87,-0.11 -74.02,-10.07 -78.51,-11.46 -10.69,-3.3 -4.71,-72.04 -4.71,-87.54"
         style="fill:#ed1c24;fill-opacity:1;fill-rule:evenodd;stroke:none"
         id="path184" /><path
         d="m 3303.97,4800.38 80.97,-31.5 0.22,90.6 -81.19,28.65 v -87.75"
         style="fill:#ed1c24;fill-opacity:1;fill-rule:evenodd;stroke:none"
         id="path186" /><path
         d="m 2635.95,4942.13 85.48,-4.5 -0.04,82.9 -85.44,7.1 v -85.5"
         style="fill:#ed1c24;fill-opacity:1;fill-rule:evenodd;stroke:none"
         id="path188" /><path
         d="m 3036.31,4883.63 83.23,-20.25 0.14,86.07 -83.37,19.68 v -85.5"
         style="fill:#ed1c24;fill-opacity:1;fill-rule:evenodd;stroke:none"
         id="path190" /><path
         d="m 896.844,4004.36 c 1.984,-3.32 4.98,-7.92 4.98,-11.73 0,-11.18 4.649,-26.5 2.25,-31.5 2,-1.13 4.5,-1.47 4.5,-4.5 0,-5.68 -11.25,-18.57 -11.25,-36 0,-5.05 1.781,-4.94 4.5,-9 4.731,3.17 13.496,17.15 13.496,22.5 v 6.75 c 9.328,-2.5 52.621,-76.5 67.477,-76.5 22.753,0 35.983,24.17 35.983,47.25 v 9 c 0,7.03 -8.99,6.78 -8.99,27 -3.2,4.77 -4.89,11.25 -11.251,11.25 h -4.5 c -5.574,0 -8.996,-6.2 -8.996,-9 0,-9.55 22.497,-25.59 22.497,-29.25 0,-12.65 -6,-21.98 -13.259,-26.18 l -11.484,1.43 c -5.27,22.61 -42.738,67.38 -42.738,67.5 0,20.05 20.242,29.08 20.242,33.75 0,5.26 -3.731,9 -8.996,9 -10.117,0 -16.387,-19.9 -26.989,-27 -5.863,11.08 -8.933,25.51 -20.722,31.98 l -6.75,-6.75"
         style="fill:#ed1c24;fill-opacity:1;fill-rule:evenodd;stroke:none"
         id="path192" /><path
         d="m 2366.05,4942.13 76.47,2.25 v 83.25 l -42.78,0.52 -33.69,-2.77 v -83.25"
         style="fill:#ed1c24;fill-opacity:1;fill-rule:evenodd;stroke:none"
         id="path194" /><path
         d="m 1635.06,4768.88 69.73,27 -0.38,90.95 -69.35,-27.95 v -90"
         style="fill:#ed1c24;fill-opacity:1;fill-rule:evenodd;stroke:none"
         id="path196" /><path
         d="m 1279.69,4336.88 c 0,-10.32 1.55,-28.79 6.16,-34.34 2.75,-3.31 25.38,-12.91 27.58,-12.91 5.15,0 2.61,0.76 9,2.25 4.2,-6.28 6.74,-9.49 6.74,-20.25 v -4.5 c 0,-13.78 -16.46,-24.75 -29.24,-24.75 -7.45,0 -8.41,6.45 -9,13.5 9.46,-0.79 20.25,-14.14 20.25,0 v 4.5 c 0,6.56 -11.97,20.25 -22.49,20.25 -10,0 -14.01,-5.3 -18,-11.25 4.55,-19.53 7.06,-38.25 31.49,-38.25 h 2.25 c 7.46,0 28.27,10.37 32.23,15.01 8.46,9.93 5,26.72 18.6,30.09 l -3.6,42.65 c -16.05,10.75 -13.43,13.5 -40.48,13.5 -2.54,1.7 -9,5.28 -9,9 0,10.91 10.86,17.74 22.49,18 1.53,-5.7 4.35,-11.25 11.25,-11.25 5.26,0 8.99,3.73 8.99,9 0,9.24 -12.36,13.5 -22.48,13.5 h -4.5 c -14.02,0 -38.24,-26.38 -38.24,-33.75"
         style="fill:#ed1c24;fill-opacity:1;fill-rule:evenodd;stroke:none"
         id="path198" /><path
         d="m 1773.35,367.484 -21.1,7.762 -17.8,-48.027 -29.47,9.754 -6.75,-20.922 c 6.99,-3.375 26.8,-6.199 26.8,-15.676 0,-14.656 -43.05,-102.711 -44.98,-126 l 20.42,-6.195 c 6.58,12.23 43.97,127.691 49.3,127.691 10.75,0 17.41,-6.766 26.99,-9 0.52,1.082 6.75,19.781 6.75,20.25 0,4.945 -21.39,9.945 -27.71,11.512 l 17.55,48.851"
         style="fill:#2e2c2a;fill-opacity:1;fill-rule:evenodd;stroke:none"
         id="path200" /><path
         d="m 3247.68,127.285 -41.39,132.274 27.76,7.718 -5.85,22.075 c -10.21,-2.446 -16.98,-6.977 -27.7,-6.977 -4.73,0 -15.19,40.613 -15.74,47.246 l -22.49,-6.75 c 4.56,-10.215 7.15,-27.348 11.08,-38.551 6.33,-18.078 -8.69,-12.32 -24.58,-19.945 l 7.28,-20.047 28.43,7.531 42.23,-131.019 20.97,6.445"
         style="fill:#2e2c2a;fill-opacity:1;fill-rule:evenodd;stroke:none"
         id="path202" /><path
         d="m 1111,4136.63 h 2.25 c 25.72,0 30.79,-69.75 9,-69.75 h -9 c -27.18,0 -26.05,21.5 -38.24,24.75 v 20.25 c 0,3.68 1.35,6.75 4.5,6.75 7.67,0 13.54,-11.25 20.24,-11.25 h 9 v 6.75 c 0,11.71 -10,22.5 2.25,22.5 z m -11.25,6.75 c -5.04,1.17 -5.17,2.25 -11.24,2.25 -8.82,0 -9.83,-11.07 -13.38,-17.4 l -10.91,1.2 -3.83,-4.38 -5.62,-15.42 c 0,-40.81 -10.09,-63 38.24,-63 1.37,-2.06 3.65,-6.75 6.74,-6.75 14.12,0 25.83,1.67 32.83,9.91 5.38,6.32 18.9,17.1 18.9,23.84 v 13.5 c 0,17.39 -8.99,18.26 -8.99,42.75 -4.92,7.34 -17.6,18 -29.24,18 h -4.5 c -3.64,0 -7.16,-2.7 -9,-4.5"
         style="fill:#ed1c24;fill-opacity:1;fill-rule:evenodd;stroke:none"
         id="path204" /><path
         d="m 1747.52,4813.88 62.98,20.25 -0.44,89.05 -62.54,-21.55 v -87.75"
         style="fill:#ed1c24;fill-opacity:1;fill-rule:evenodd;stroke:none"
         id="path206" /><path
         d="m 782.613,3715.88 c 0,-3.86 13.606,-33.16 16.2,-37.8 5.933,-10.63 15.671,-25.2 31.035,-25.2 h 9 c 5.406,0 6.613,3.64 11.242,6.75 h 13.496 c 22.285,14.92 22.551,74.25 9,74.25 h -2.25 c -5.266,0 -8.996,-3.74 -8.996,-9 v -2.25 c 0,-8.28 6.746,-5.23 6.746,-13.5 v -9 c 0,-6.7 -7.27,-27 -13.496,-27 -6.289,0 -6.215,5.23 -15.801,8.94 -11.738,4.54 -5.617,5.76 -10.715,16.28 -5.066,10.46 -20.715,20.2 -20.715,33.28 0,23.51 29.239,27.53 29.239,42.75 0,5.2 -2.516,13.5 -6.75,13.5 -9.129,0 -8.215,-9.27 -14.364,-14.88 -6.511,-5.95 -12.328,-6.73 -17.828,-11.42 -7.043,-5.99 -15.043,-32.12 -15.043,-45.7"
         style="fill:#ed1c24;fill-opacity:1;fill-rule:evenodd;stroke:none"
         id="path208" /><path
         d="m 2696.84,143.031 c 3.85,-32.797 6.04,-74.4451 8.84,-108.1599 l 22.47,2.4023 -14.38,211.2896 -17.09,0.058 c -9.73,0 -5.89,-37.902 -3.62,-50.875 3.65,-20.808 1.35,-33.976 3.78,-54.715"
         style="fill:#2e2c2a;fill-opacity:1;fill-rule:evenodd;stroke:none"
         id="path210" /><path
         d="m 982.797,4017.38 c -5.445,-3.65 -9,-6.6 -9,-15.75 v -4.5 c 0,-5.19 1.566,-6.75 6.75,-6.75 11.769,0 9.187,27.02 13.492,36 2.934,-1.97 21.101,-31.17 24.041,-36.7 8.61,-16.23 8.86,-32.22 23.15,-39.53 l 15.02,2.89 16.64,12.58 2.12,38.26 v 2.25 c 0,5.2 -2.51,13.5 -6.74,13.5 -10.43,0 -6.19,-26.18 -9,-38.25 -10.06,2.68 -23.97,33.76 -31.49,45 v 15.75 c -4.35,6.5 -9.4,13.5 -20.24,13.5 h -4.5 c -11.438,0 -20.243,-24.54 -20.243,-38.25"
         style="fill:#ed1c24;fill-opacity:1;fill-rule:evenodd;stroke:none"
         id="path212" /><path
         d="m 730.887,3585.38 c 0,-3.09 4.691,-5.38 6.746,-6.75 3.5,2.34 6.75,2.98 6.75,9 v 13.5 c 0,7.75 -1.664,8.71 -2.254,15.75 19.047,-1.59 50.254,-60.75 62.98,-60.75 13.621,0 26.989,15.48 26.989,24.75 v 13.5 c 0,5.69 -6.864,33.75 -13.493,33.75 -3.683,0 -6.75,-1.35 -6.75,-4.5 0,-9.83 4.497,-8.18 4.497,-18 v -15.75 l -1.852,-1.82 -36.641,37.51 -1.992,-1.94 c -0.91,10.98 -9.519,27 -17.992,27 -27.207,0 -26.988,-37.5 -26.988,-65.25"
         style="fill:#ed1c24;fill-opacity:1;fill-rule:evenodd;stroke:none"
         id="path214" /><path
         d="m 3299.62,142.922 c 24.36,11.715 26.75,-5.457 15.31,28.914 -4.61,13.844 -10.17,29.891 -15.18,43.316 -3.62,9.7 -26.84,82.321 -27.27,87.469 l -23.11,-4.699 50.25,-155"
         style="fill:#2e2c2a;fill-opacity:1;fill-rule:evenodd;stroke:none"
         id="path216" /><path
         d="m 2769.2,39.4375 21.93,2.3359 -17.89,159.6096 -11.33,-0.008 c -6.07,0 -6.2,-1.074 -11.92,-2.336 L 2769.2,39.4375"
         style="fill:#2e2c2a;fill-opacity:1;fill-rule:evenodd;stroke:none"
         id="path218" /><path
         d="m 3774.05,4258.13 v -27 c 0,-22.04 -28.03,-38.25 -51.73,-38.25 h -11.25 c -16.43,0 -41.92,16.25 -52.15,24.32 -19.08,15.06 -22.12,27.7 -35.57,43.18 0,-28.18 26.99,-68.56 42.18,-83.81 20.3,-20.4 50.76,-37.69 90.53,-37.69 h 13.49 c 18.27,0 40.65,10.57 51.73,18 4.21,-6.29 57.69,-51.43 68.06,-60.17 24.29,-20.5 44,-39.55 66.34,-61.89 43.55,-43.57 85.49,-86.24 123.84,-134.86 19.54,-24.77 37.32,-45.33 57.02,-71.21 18.79,-24.7 36.67,-50.32 54.06,-76.43 35.82,-53.76 64.91,-103.55 97.04,-161.67 31.9,-57.7 51.33,-116.11 79.48,-177 26.17,-56.63 43.51,-131.66 62.86,-195.86 33.26,-110.39 66.06,-311.21 66.06,-451.41 l 121.96,0.21 -27.49,65.04 h -47.24 l 1.65,33.91 -15,143.09 65.95,12.52 -34.75,58.81 -42.58,-7.58 v 11.25 c 0,19.32 -9,28.37 -9.06,45.26 l 156.54,35.85 7.72,71.83 -180.26,-39.92 -15.14,54.85 63.92,19.88 -46.06,56.95 -38.17,-11.45 1.88,1.55 -47.09,120.7 c 15.24,3.55 56.23,21.96 56.23,40.5 v 4.5 c 0,28.24 -76.76,149.35 -85.48,186.62 l 135.12,-15.54 -20.37,38.36 -195.71,29.06 c 19.83,-29.62 42.09,-70.65 58.48,-103.5 17.6,-35.28 33.83,-78.67 51.7,-112.44 l -22.46,-11.31 c -20.92,43.62 -38.26,83.18 -61.5,125.22 -7.09,12.81 -68.95,119.48 -68.95,120.03 0,6.41 44.37,34.35 51.73,38.25 -3.57,5.32 -57.36,42.75 -58.48,42.75 -4.12,0 -28.95,-19.29 -33.74,-22.5 l 1.86,1.42 -83.08,106.88 53.63,44.97 -1.65,1.98 c -11.99,2.79 -42.33,22.5 -49.48,22.5 -2.46,0 -29.38,-21.83 -34.67,-25.56 l -18.77,22.76 37.69,38.8 c -5.82,3.08 -49.81,27 -51.73,27 -0.17,0 -23.6,-20.24 -26.5,-22.02 l -21.25,22.53 38.49,39.43 -51.96,25.81 -25.81,-24.52 -40.32,38.97 46.38,50.3 c -3.96,1.9 -66.39,20.25 -69.72,20.25 -6.98,0 -24.48,-22.31 -30.23,-25.52 l -46.25,36.77 c 0,12 -0.06,24 0,36 0.12,22.55 4.5,20.33 -14.41,23.83 -17.23,3.2 -48.01,12.17 -62.06,12.17 1.83,-7.86 4.5,-7.58 4.5,-15.75"
         style="fill:#ed1c24;fill-opacity:1;fill-rule:evenodd;stroke:none"
         id="path220" /><path
         d="m 4327.35,1798.88 c -5.41,0 -13.49,8.08 -13.49,13.5 v 9 c 0,11.31 11.18,22.5 22.49,22.5 h 4.5 c 7.27,0 11.24,-8.17 11.24,-15.76 v -4.49 c 0,-11.44 -13.3,-24.75 -24.74,-24.75 z m -85.47,0 119.21,-67.5 c 4.5,19.29 24.74,46.18 24.74,74.25 v 31.49 c 0,32.22 -26.99,64.6 -26.99,65.26 0,4.71 25.39,53.46 29.64,61.55 l 62.58,-30.05 v 76.5 c 0,8.13 -29.02,16.56 -35.99,20.25 7.45,31.98 46.4,97.72 47.23,135 18.41,-1.54 53.44,-15.72 75.6,-21.13 14.34,-3.51 64.04,-23.87 75.1,-23.87 4.93,0 42.48,49.15 47.38,56.76 l -225.07,64.74 c -5.22,-9.89 -16.37,-45.48 -20.53,-58.21 -6.49,-19.85 -12.8,-38.69 -20.24,-58.51 -14.53,-38.69 -29.11,-76.27 -45.41,-114.32 -34.86,-81.36 -68.67,-139.28 -107.25,-212.21"
         style="fill:#ed1c24;fill-opacity:1;fill-rule:evenodd;stroke:none"
         id="path222" /><path
         d="m 4437.56,2257.88 113.83,-29.06 -10.6,68.56 -35.75,7.75 c 0.39,17.54 9.3,47.94 12.6,66.14 4.19,23.17 5.65,45.77 10.88,67.87 5.53,23.43 14.75,117.27 14.82,142.83 l -47.3,31.41 c 0,-27.05 -7.84,-63.59 -8.91,-94.59 -0.81,-23.23 -8.28,-66.24 -12.63,-90.86 -11.11,-62.93 -23.62,-112.88 -36.94,-170.05"
         style="fill:#ed1c24;fill-opacity:1;fill-rule:evenodd;stroke:none"
         id="path224" /><path
         d="m 4421.82,2912.63 c 0,-12.35 4.59,-17.77 6.75,-27 -8.12,5.95 -9.87,18 -24.75,18 h -6.74 c -14.72,0 -26.99,-19.66 -26.99,-33.75 0,-17.52 12.13,-36 29.23,-36 26.23,0 29.25,23.98 29.25,51.75 7.8,-5.23 8.55,-9 22.49,-9 h 2.24 c 15.6,0 27,20.03 27,36 v 6.75 c 0,16.09 -13.63,31.5 -31.49,31.5 -16.63,0 -26.99,-21.07 -26.99,-38.25"
         style="fill:#ed1c24;fill-opacity:1;fill-rule:evenodd;stroke:none"
         id="path226" /><path
         d="m 4466.8,1965.38 c 0,-15.39 9.91,-31.5 24.74,-31.5 h 9 c 10.48,0 26.99,25.14 26.99,40.5 0,14.42 -11.98,33.75 -24.74,33.75 -21.75,0 -35.99,-20.97 -35.99,-42.75"
         style="fill:#ed1c24;fill-opacity:1;fill-rule:evenodd;stroke:none"
         id="path228" /><path
         d="m 4496.04,2057.63 v -15.75 c 0,-11.78 10.05,-24.75 22.5,-24.75 h 6.74 c 15.9,0 29.24,21.57 29.24,38.25 v 6.75 c 0,12.67 -14.29,29.25 -26.99,29.25 -15.26,0 -31.49,-19.33 -31.49,-33.75"
         style="fill:#ed1c24;fill-opacity:1;fill-rule:evenodd;stroke:none"
         id="path230" /><path
         d="m 4428.57,2840.63 v -15.75 c 0,-12.13 12.11,-27 24.73,-27 h 4.5 c 12.71,0 27,16.57 27,29.25 v 18 c 0,12.12 -12.12,27 -24.75,27 h -4.5 c -14.39,0 -26.98,-16.27 -26.98,-31.5"
         style="fill:#ed1c24;fill-opacity:1;fill-rule:evenodd;stroke:none"
         id="path232" /><path
         d="m 4392.58,2444.63 v -9 c 0,-9.65 11.9,-27 20.24,-27 h 9 c 17.49,0 29.24,21.42 29.24,40.5 v 2.25 c 0,11.94 -8.06,29.25 -18,29.25 h -15.74 c -10.6,0 -24.74,-22.53 -24.74,-36"
         style="fill:#ed1c24;fill-opacity:1;fill-rule:evenodd;stroke:none"
         id="path234" /><path
         d="m 3781.57,4330.05 v -2.25 c 0,-19.88 18.47,-40.5 38.24,-40.5 h 4.5 c 12.44,0 22.49,12.98 22.49,24.75 v 2.25 c 0,18.3 -18.96,40.5 -38.23,40.5 h -4.5 c -12.45,0 -22.5,-12.97 -22.5,-24.75"
         style="fill:#ed1c24;fill-opacity:1;fill-rule:evenodd;stroke:none"
         id="path236" /><path
         d="m 4131.67,4035.38 v -11.25 c 0,-15.45 20.5,-33.75 35.99,-33.75 h 6.75 c 14.07,0 22.49,12.47 22.49,27 v 2.25 c 0,16.19 -19.79,36 -35.99,36 h -9 c -11.11,0 -20.24,-9.13 -20.24,-20.25"
         style="fill:#ed1c24;fill-opacity:1;fill-rule:evenodd;stroke:none"
         id="path238" /><path
         d="m 4340.85,3272.63 v -11.25 c 0,-15.04 15.52,-33.75 31.49,-33.75 14.62,0 26.98,14.75 26.98,27 0,20.78 -7.3,45 -26.98,45 h -11.25 c -8.34,0 -20.24,-17.36 -20.24,-27"
         style="fill:#ed1c24;fill-opacity:1;fill-rule:evenodd;stroke:none"
         id="path240" /><path
         d="m 3947.24,4219.88 c 0,-17.08 21.46,-38.25 38.23,-38.25 11.78,0 24.74,10.05 24.74,22.5 v 11.25 c 0,14.47 -21.52,36 -35.98,36 h -2.25 c -17.51,0 -24.74,-13.2 -24.74,-31.5"
         style="fill:#ed1c24;fill-opacity:1;fill-rule:evenodd;stroke:none"
         id="path242" /><path
         d="m 4073.19,4096.13 v -4.5 c 0,-16.29 19.24,-36 35.99,-36 h 9 c 5.46,0 17.99,12.53 17.99,18 v 11.25 c 0,17.73 -16.73,38.25 -33.74,38.25 h -6.75 c -14.07,0 -22.49,-12.48 -22.49,-27"
         style="fill:#ed1c24;fill-opacity:1;fill-rule:evenodd;stroke:none"
         id="path244" /><path
         d="m 4145.16,4102.88 v -11.25 c 0,-16.2 19.8,-36 35.99,-36 18.73,0 26.99,10.61 26.99,29.25 0,16.64 -17.24,38.25 -33.73,38.25 h -9 c -11.12,0 -20.25,-9.13 -20.25,-20.25"
         style="fill:#ed1c24;fill-opacity:1;fill-rule:evenodd;stroke:none"
         id="path246" /><path
         d="m 4316.11,3346.88 c 0,-24.52 6.89,-45 31.48,-45 h 2.25 c 12.63,0 24.75,14.87 24.75,27 v 11.25 c 0,13.41 -16.43,33.75 -29.25,33.75 -16.5,0 -29.23,-13.24 -29.23,-27"
         style="fill:#ed1c24;fill-opacity:1;fill-rule:evenodd;stroke:none"
         id="path248" /><path
         d="m 4122.68,3731.63 c 0,-18.96 14.08,-42.75 31.48,-42.75 h 6.75 c 10.6,0 22.49,12.54 22.49,20.25 v 13.5 c 0,16.02 -18.54,36 -35.98,36 -15.45,0 -24.74,-11.08 -24.74,-27"
         style="fill:#ed1c24;fill-opacity:1;fill-rule:evenodd;stroke:none"
         id="path250" /><path
         d="m 4077.69,3801.38 v -15.75 c 0,-12.91 16.43,-31.5 29.24,-31.5 h 6.75 c 14.61,0 22.49,14.44 22.49,29.25 v 6.75 c 0,12.97 -15.34,33.75 -29.24,33.75 h -11.25 c -6.98,0 -17.99,-13.25 -17.99,-22.5"
         style="fill:#ed1c24;fill-opacity:1;fill-rule:evenodd;stroke:none"
         id="path252" /><path
         d="m 4390.33,3031.88 v -11.25 c 0,-12.68 14.28,-29.25 26.99,-29.25 h 4.5 c 10.91,0 24.74,14.7 24.74,22.5 v 20.25 c 0,12.67 -14.29,29.25 -26.99,29.25 h -4.5 c -14.84,0 -24.74,-16.12 -24.74,-31.5"
         style="fill:#ed1c24;fill-opacity:1;fill-rule:evenodd;stroke:none"
         id="path254" /><path
         d="m 679.152,3688.88 v -4.5 c 0,-13.5 27.411,-31.5 38.239,-31.5 h 6.746 c -0.352,15.85 -20.965,51.75 -33.739,51.75 -7.269,0 -11.246,-8.17 -11.246,-15.75"
         style="fill:#ed1c24;fill-opacity:1;fill-rule:evenodd;stroke:none"
         id="path256" /><path
         d="m 985.043,4071.38 v 9 c 0,4.75 -15.395,42.75 -22.488,42.75 -12.7,0 -21.492,-26.06 -9.508,-36.51 3.402,-2.97 31.996,-35.82 31.996,-15.24"
         style="fill:#ed1c24;fill-opacity:1;fill-rule:evenodd;stroke:none"
         id="path258" /><path
         d="m 3794.29,397.121 c 3.09,-4.617 18.82,-31.5 22.5,-31.5 6.01,0 15.27,7.547 17.99,11.25 l -21.53,34.352 -18.96,-14.102"
         style="fill:#2e2c2a;fill-opacity:1;fill-rule:evenodd;stroke:none"
         id="path260" /><path
         d="m 1176.23,406.121 c 2.65,5.008 20.24,30.707 20.24,33.75 0,2.82 -15.18,11.25 -17.99,11.25 -2.69,0 -19.76,-29.66 -22.5,-33.746 l 20.25,-11.254"
         style="fill:#2e2c2a;fill-opacity:1;fill-rule:evenodd;stroke:none"
         id="path262" /><path
         d="m 3243.96,311.848 21.82,6.371 -9.07,33.898 -23.19,-6.969 10.44,-33.3"
         style="fill:#2e2c2a;fill-opacity:1;fill-rule:evenodd;stroke:none"
         id="path264" /><path
         d="m 2748.27,217.102 22.64,0.019 -5.47,35.848 -22.51,-2.254 5.34,-33.613"
         style="fill:#2e2c2a;fill-opacity:1;fill-rule:evenodd;stroke:none"
         id="path266" /><path
         d="m 2932.85,887.625 2.25,150.755 h 94.41 l 2.3,-162.005 c 0,28.496 0,56.996 0,85.496 0,14.418 5.27,78.759 -6.74,78.759 h -85.47 c -11.96,0 -6.75,-58.157 -6.75,-72.005 0,-27 0,-54 0,-81"
         style="fill:#73cceb;fill-opacity:1;fill-rule:evenodd;stroke:none"
         id="path268" /><path
         d="m 4160.91,907.871 2.27,409.509 h 40.47 l 2.24,-366.755 -2.24,369.005 h -40.49 l -2.25,-411.759"
         style="fill:#73cceb;fill-opacity:1;fill-rule:evenodd;stroke:none"
         id="path270" /></g></g></svg>
